<?xml version="1.0" encoding="UTF-8"?>
<svg xmlns="http://www.w3.org/2000/svg" xmlns:xlink="http://www.w3.org/1999/xlink" width="50px" height="50px" viewBox="0 0 50 50" version="1.1">
<g id="surface1">
<path style=" stroke:none;fill-rule:nonzero;fill:rgb(0%,0%,0%);fill-opacity:1;" d="M 19.925781 23.296875 C 18.863281 23.265625 17.820312 23.222656 16.78125 23.210938 C 15.65625 23.191406 14.910156 22.644531 14.574219 21.566406 C 14.40625 21.035156 14.339844 20.488281 14.300781 19.9375 C 14.199219 18.605469 14.226562 17.273438 14.300781 15.9375 C 14.3125 15.703125 14.355469 15.472656 14.382812 15.238281 C 14.425781 14.84375 14.648438 14.585938 14.992188 14.417969 C 15.570312 14.136719 16.195312 14.070312 16.820312 14.050781 C 18.886719 13.984375 20.953125 13.972656 23.019531 13.9375 C 24.082031 13.917969 25.148438 13.933594 26.214844 13.941406 C 26.480469 13.941406 26.691406 13.96875 26.78125 14.257812 C 26.804688 14.335938 26.894531 14.378906 26.894531 14.484375 C 26.792969 14.542969 26.679688 14.519531 26.570312 14.519531 C 24.691406 14.519531 22.8125 14.5 20.929688 14.527344 C 19.792969 14.542969 18.65625 14.535156 17.515625 14.601562 C 17.207031 14.617188 17.050781 14.75 16.96875 15.015625 C 16.921875 15.175781 16.847656 15.335938 16.871094 15.507812 C 16.96875 15.554688 17.011719 15.476562 17.0625 15.433594 C 17.445312 15.109375 17.882812 14.976562 18.386719 14.980469 C 19.902344 15 21.414062 14.988281 22.929688 15.003906 C 22.714844 15.082031 22.5 15.140625 22.265625 15.140625 C 21.816406 15.140625 21.449219 15.328125 21.15625 15.667969 C 20.992188 15.859375 21 16.050781 21.1875 16.222656 C 21.3125 16.339844 21.449219 16.445312 21.570312 16.5625 C 21.734375 16.71875 21.765625 16.882812 21.617188 17.082031 C 21.457031 17.285156 21.480469 17.347656 21.707031 17.472656 C 21.84375 17.546875 21.996094 17.5625 22.148438 17.589844 C 23.113281 17.777344 24.089844 17.789062 25.0625 17.851562 C 25.429688 17.875 25.8125 17.847656 26.164062 17.691406 C 26.300781 17.628906 26.445312 17.617188 26.59375 17.625 C 26.765625 17.632812 26.933594 17.613281 27.101562 17.574219 C 27.375 17.511719 27.582031 17.378906 27.628906 17.074219 C 27.683594 16.683594 27.960938 16.476562 28.28125 16.3125 C 28.386719 16.257812 28.523438 16.21875 28.53125 16.074219 C 28.539062 15.9375 28.402344 15.902344 28.308594 15.84375 C 27.976562 15.632812 27.898438 15.371094 28.089844 15.050781 C 27.957031 15.042969 27.832031 15.035156 27.707031 15.03125 C 27.707031 15.015625 27.707031 15.003906 27.707031 14.988281 C 27.957031 14.988281 28.207031 14.992188 28.460938 14.988281 C 29.335938 14.988281 30.214844 14.941406 31.09375 15.015625 C 31.511719 15.050781 31.867188 15.226562 32.1875 15.527344 C 32.164062 15.300781 32.050781 15.125 31.988281 14.917969 C 32.261719 14.828125 32.523438 14.847656 32.785156 14.894531 C 32.910156 14.914062 32.933594 15.035156 32.964844 15.132812 C 33.207031 15.898438 33.316406 16.6875 33.359375 17.484375 C 33.441406 19.003906 33.359375 20.519531 33.175781 22.035156 C 33.164062 22.136719 33.144531 22.242188 33.191406 22.359375 C 33.390625 22.304688 33.519531 22.160156 33.640625 22.011719 C 34.042969 21.535156 34.121094 20.957031 34.164062 20.367188 C 34.261719 18.972656 34.222656 17.570312 34.210938 16.171875 C 34.207031 15.921875 34.179688 15.671875 34.160156 15.417969 C 34.148438 15.265625 34.0625 15.167969 33.941406 15.085938 C 33.859375 15.03125 33.757812 15.011719 33.6875 14.914062 C 33.886719 14.742188 34.238281 15.003906 34.359375 14.652344 C 34.589844 14.800781 34.644531 15.011719 34.679688 15.226562 C 34.785156 15.863281 34.796875 16.507812 34.816406 17.148438 C 34.859375 18.34375 34.835938 19.539062 34.675781 20.726562 C 34.585938 21.402344 34.414062 22.050781 33.925781 22.566406 C 33.507812 23.011719 32.972656 23.183594 32.390625 23.203125 C 30.949219 23.246094 29.511719 23.273438 28.070312 23.308594 C 27.664062 23.320312 27.257812 23.335938 26.851562 23.355469 C 26.6875 23.363281 26.558594 23.3125 26.429688 23.210938 C 25.582031 22.550781 25.582031 22.515625 24.523438 22.488281 C 23.871094 22.46875 23.210938 22.574219 22.730469 23.125 C 22.554688 23.324219 22.332031 23.367188 22.070312 23.355469 C 21.363281 23.328125 20.65625 23.316406 19.925781 23.296875 M 17.664062 19.605469 C 17.644531 18.90625 17.628906 18.207031 17.613281 17.511719 C 17.605469 17.136719 17.632812 16.765625 17.660156 16.390625 C 17.664062 16.316406 17.6875 16.199219 17.582031 16.191406 C 17.335938 16.175781 17.09375 16.203125 16.867188 16.292969 C 16.796875 16.320312 16.816406 16.40625 16.8125 16.46875 C 16.765625 18.011719 16.710938 19.554688 16.8125 21.097656 C 16.851562 21.722656 16.847656 21.714844 17.46875 21.71875 C 17.71875 21.722656 17.773438 21.625 17.757812 21.402344 C 17.71875 20.820312 17.695312 20.234375 17.664062 19.605469 M 22.964844 20.71875 C 22.675781 20.96875 22.34375 21.046875 21.96875 20.996094 C 21.90625 20.988281 21.839844 21 21.777344 21.015625 C 21.683594 21.039062 21.609375 21.09375 21.605469 21.199219 C 21.601562 21.3125 21.691406 21.355469 21.78125 21.367188 C 21.898438 21.382812 22.023438 21.386719 22.144531 21.386719 C 22.933594 21.386719 23.667969 21.523438 24.253906 22.113281 C 24.460938 22.324219 24.632812 22.285156 24.726562 22.003906 C 24.867188 21.589844 25.125 21.339844 25.542969 21.246094 C 25.582031 21.238281 25.625 21.226562 25.644531 21.132812 C 25.410156 20.992188 25.152344 20.820312 24.867188 20.820312 C 24.242188 20.820312 23.621094 20.816406 22.964844 20.71875 M 18.230469 15.609375 C 18.128906 15.65625 18.132812 15.746094 18.132812 15.835938 C 18.140625 16.421875 18.113281 17.007812 18.164062 17.59375 C 18.179688 17.78125 18.226562 17.863281 18.433594 17.863281 C 18.652344 17.859375 18.683594 17.746094 18.6875 17.570312 C 18.699219 17.082031 18.707031 16.59375 18.753906 16.109375 C 18.8125 15.5 18.800781 15.585938 18.230469 15.609375 M 21.960938 20.035156 C 21.929688 20.03125 21.898438 20.019531 21.867188 20.023438 C 21.679688 20.039062 21.480469 20.0625 21.40625 20.265625 C 21.367188 20.386719 21.625 20.515625 21.878906 20.511719 C 22.03125 20.507812 22.195312 20.484375 22.234375 20.316406 C 22.269531 20.15625 22.105469 20.117188 21.960938 20.035156 Z M 21.960938 20.035156 "/>
<path style=" stroke:none;fill-rule:nonzero;fill:rgb(0%,0%,0%);fill-opacity:1;" d="M 20.65625 25.730469 C 20.363281 25.929688 20.320312 26.257812 20.238281 26.558594 C 20.1875 26.726562 20.191406 26.910156 20.089844 27.085938 C 19.96875 26.945312 19.949219 26.78125 19.90625 26.628906 C 19.863281 26.484375 19.835938 26.335938 19.792969 26.160156 C 19.652344 26.320312 19.675781 26.488281 19.660156 26.644531 C 19.648438 26.789062 19.597656 26.898438 19.488281 27.003906 C 19.3125 27.171875 19.292969 27.449219 19.414062 27.695312 C 19.523438 27.71875 19.5 27.59375 19.558594 27.558594 C 19.636719 27.640625 19.621094 27.75 19.667969 27.832031 C 19.992188 27.820312 19.992188 27.820312 20.140625 27.277344 C 20.28125 27.476562 20.238281 27.664062 20.164062 27.851562 C 20.058594 28.121094 20.144531 28.382812 20.203125 28.664062 C 20.308594 28.40625 20.523438 28.265625 20.699219 28.082031 C 20.871094 27.902344 20.84375 27.648438 20.847656 27.40625 C 21.011719 27.578125 20.992188 27.800781 20.941406 27.992188 C 20.867188 28.265625 20.945312 28.535156 20.917969 28.804688 C 20.90625 28.90625 20.953125 29.019531 21.070312 29.023438 C 21.179688 29.027344 21.207031 28.90625 21.210938 28.824219 C 21.222656 28.558594 21.371094 28.382812 21.558594 28.183594 C 21.621094 28.414062 21.425781 28.550781 21.4375 28.738281 C 21.605469 28.472656 21.679688 28.179688 21.738281 27.875 C 21.933594 28.335938 21.800781 28.824219 21.878906 29.304688 C 21.933594 28.941406 21.988281 28.597656 22.367188 28.417969 C 22.472656 28.566406 22.394531 28.738281 22.339844 28.914062 C 22.441406 28.9375 22.402344 28.792969 22.519531 28.804688 C 22.589844 28.988281 22.511719 29.199219 22.550781 29.394531 C 22.558594 29.4375 22.53125 29.488281 22.535156 29.539062 C 22.535156 29.628906 22.535156 29.734375 22.660156 29.734375 C 22.757812 29.734375 22.828125 29.664062 22.832031 29.5625 C 22.835938 29.433594 22.828125 29.300781 22.8125 29.175781 C 22.789062 28.96875 22.847656 28.796875 22.972656 28.625 C 23 28.671875 23.019531 28.703125 23.042969 28.738281 C 23.105469 28.621094 23.164062 28.507812 23.222656 28.394531 C 23.265625 28.609375 23.410156 28.761719 23.4375 28.972656 C 23.617188 28.878906 23.664062 28.691406 23.820312 28.589844 C 23.898438 28.761719 23.914062 28.972656 24.125 29.070312 C 24.164062 28.914062 24.054688 28.789062 24.082031 28.640625 C 24.199219 28.671875 24.230469 28.777344 24.273438 28.851562 C 24.386719 29.042969 24.570312 29.148438 24.742188 29.269531 C 24.828125 29.332031 24.890625 29.28125 24.960938 29.238281 C 25.203125 29.09375 25.390625 28.894531 25.507812 28.664062 C 25.621094 28.640625 25.589844 28.753906 25.65625 28.757812 C 25.761719 28.761719 25.699219 28.625 25.785156 28.605469 C 25.945312 28.671875 25.96875 28.886719 26.15625 28.957031 C 26.21875 28.769531 26.285156 28.585938 26.351562 28.394531 C 26.476562 28.492188 26.5 28.644531 26.574219 28.804688 C 26.585938 28.734375 26.59375 28.695312 26.605469 28.628906 C 26.78125 28.769531 26.789062 28.949219 26.785156 29.132812 C 26.785156 29.261719 26.769531 29.390625 26.765625 29.519531 C 26.765625 29.628906 26.808594 29.726562 26.933594 29.714844 C 27.058594 29.707031 27.089844 29.605469 27.066406 29.5 C 27.023438 29.277344 27.113281 29.054688 27.046875 28.859375 C 27.117188 28.769531 27.164062 28.886719 27.21875 28.832031 C 27.234375 28.703125 27.132812 28.5625 27.230469 28.433594 C 27.582031 28.589844 27.691406 28.886719 27.660156 29.28125 C 27.882812 29.148438 27.804688 29.003906 27.769531 28.875 C 27.675781 28.535156 27.820312 28.21875 27.789062 27.886719 C 27.816406 27.886719 27.84375 27.886719 27.871094 27.886719 C 27.898438 28.003906 27.925781 28.121094 27.953125 28.242188 C 28.023438 28.25 28.09375 28.183594 28.152344 28.289062 C 28.242188 28.464844 28.394531 28.613281 28.390625 28.835938 C 28.390625 28.914062 28.425781 29.015625 28.523438 29.015625 C 28.636719 29.011719 28.699219 28.914062 28.691406 28.8125 C 28.660156 28.542969 28.742188 28.277344 28.667969 28.007812 C 28.621094 27.832031 28.574219 27.628906 28.730469 27.441406 C 28.796875 27.546875 28.765625 27.644531 28.769531 27.734375 C 28.773438 27.890625 28.824219 28.046875 28.9375 28.128906 C 29.128906 28.273438 29.289062 28.433594 29.386719 28.664062 C 29.484375 28.394531 29.550781 28.132812 29.449219 27.859375 C 29.378906 27.675781 29.332031 27.496094 29.46875 27.277344 C 29.5 27.414062 29.511719 27.519531 29.554688 27.609375 C 29.601562 27.710938 29.574219 27.890625 29.800781 27.84375 C 29.886719 27.824219 29.914062 27.984375 29.988281 28.058594 C 29.972656 27.890625 29.925781 27.730469 30.007812 27.59375 C 30.082031 27.5625 30.078125 27.664062 30.144531 27.644531 C 30.179688 27.367188 30.203125 27.105469 29.9375 26.914062 C 29.832031 26.835938 29.855469 26.691406 29.835938 26.570312 C 29.816406 26.429688 29.835938 26.277344 29.714844 26.097656 C 29.621094 26.441406 29.621094 26.777344 29.433594 27.070312 C 29.308594 26.929688 29.324219 26.769531 29.292969 26.625 C 29.222656 26.296875 29.136719 25.980469 28.90625 25.71875 C 28.828125 25.628906 28.773438 25.507812 28.742188 25.394531 C 28.683594 25.183594 28.742188 24.984375 28.953125 24.90625 C 29.152344 24.835938 29.277344 24.710938 29.394531 24.550781 C 29.449219 24.476562 29.511719 24.394531 29.648438 24.398438 C 29.660156 24.554688 29.484375 24.613281 29.457031 24.773438 C 29.636719 24.628906 29.765625 24.449219 30 24.351562 C 29.964844 24.546875 29.808594 24.628906 29.734375 24.8125 C 29.949219 24.699219 30.0625 24.503906 30.292969 24.453125 C 30.261719 24.636719 30.058594 24.675781 30.019531 24.847656 C 30.320312 24.832031 30.464844 24.542969 30.738281 24.457031 C 30.707031 24.625 30.558594 24.679688 30.453125 24.84375 C 30.683594 24.707031 30.863281 24.597656 31.070312 24.476562 C 31.042969 24.679688 30.871094 24.726562 30.761719 24.867188 C 31.007812 24.796875 31.183594 24.644531 31.390625 24.550781 C 31.320312 24.789062 31.125 24.910156 30.949219 25.058594 C 31.234375 24.972656 31.457031 24.761719 31.777344 24.621094 C 31.671875 24.917969 31.425781 25.023438 31.246094 25.226562 C 31.582031 25.148438 31.8125 24.933594 32.097656 24.816406 C 31.992188 25.085938 31.742188 25.195312 31.523438 25.34375 C 31.832031 25.28125 32.09375 25.132812 32.285156 24.886719 C 32.46875 24.652344 32.628906 24.402344 32.828125 24.121094 C 32.878906 24.296875 32.75 24.375 32.757812 24.503906 C 32.941406 24.367188 33.035156 24.160156 33.214844 24.023438 C 33.175781 24.289062 32.96875 24.457031 32.824219 24.746094 C 33.136719 24.46875 33.316406 24.167969 33.558594 23.917969 C 33.507812 24.296875 33.183594 24.511719 33.042969 24.835938 C 33.402344 24.585938 33.566406 24.191406 33.792969 23.839844 C 33.820312 24.179688 33.59375 24.417969 33.453125 24.691406 C 33.726562 24.386719 33.941406 24.050781 34.042969 23.652344 C 34.0625 24.328125 33.613281 24.757812 33.226562 25.226562 C 32.785156 25.757812 32.183594 25.800781 31.558594 25.789062 C 31.910156 25.964844 32.527344 25.984375 32.902344 25.753906 C 33.609375 25.328125 34.183594 24.777344 34.335938 23.910156 C 34.359375 23.785156 34.351562 23.667969 34.320312 23.546875 C 34.277344 23.394531 34.335938 23.269531 34.476562 23.242188 C 34.628906 23.210938 34.621094 23.367188 34.640625 23.460938 C 34.746094 23.964844 34.597656 24.417969 34.34375 24.835938 C 33.960938 25.472656 33.433594 25.957031 32.722656 26.214844 C 32.625 26.25 32.554688 26.292969 32.519531 26.402344 C 32.226562 27.28125 31.90625 28.148438 31.707031 29.058594 C 31.59375 29.5625 31.648438 30.050781 31.8125 30.542969 C 32.167969 31.621094 32.113281 32.707031 31.753906 33.773438 C 31.601562 34.230469 31.332031 34.605469 30.933594 34.898438 C 30.507812 35.210938 30.21875 35.652344 29.996094 36.128906 C 29.765625 36.628906 29.417969 37.003906 28.917969 37.246094 C 28.078125 37.648438 27.277344 38.195312 26.335938 38.304688 C 24.785156 38.492188 23.234375 38.554688 21.792969 37.746094 C 21.425781 37.539062 21.042969 37.363281 20.664062 37.171875 C 20.277344 36.980469 19.992188 36.683594 19.804688 36.300781 C 19.496094 35.671875 19.082031 35.140625 18.53125 34.691406 C 18.050781 34.300781 17.867188 33.714844 17.765625 33.121094 C 17.601562 32.171875 17.601562 31.230469 17.949219 30.3125 C 18.167969 29.734375 18.054688 29.152344 17.886719 28.585938 C 17.6875 27.917969 17.464844 27.253906 17.257812 26.585938 C 17.199219 26.402344 17.09375 26.316406 16.902344 26.277344 C 15.855469 26.078125 14.671875 24.832031 14.777344 23.605469 C 14.789062 23.492188 14.777344 23.375 14.875 23.277344 C 15.082031 23.34375 15.230469 23.425781 15.175781 23.699219 C 15.128906 23.953125 15.207031 24.207031 15.324219 24.429688 C 15.601562 24.957031 16 25.382812 16.503906 25.703125 C 16.976562 26 17.476562 25.945312 17.996094 25.761719 C 16.910156 25.886719 16.21875 25.328125 15.695312 24.476562 C 15.539062 24.226562 15.425781 23.953125 15.464844 23.640625 C 15.566406 23.953125 15.707031 24.238281 15.921875 24.488281 C 15.847656 24.289062 15.691406 24.117188 15.707031 23.8125 C 15.984375 24.1875 16.128906 24.585938 16.46875 24.828125 C 16.300781 24.523438 16.015625 24.289062 15.945312 23.917969 C 16.203125 24.152344 16.382812 24.457031 16.648438 24.6875 C 16.527344 24.429688 16.296875 24.234375 16.261719 23.925781 C 16.417969 24.117188 16.574219 24.308594 16.75 24.519531 C 16.761719 24.375 16.636719 24.296875 16.683594 24.105469 C 17.039062 24.589844 17.269531 25.15625 17.882812 25.304688 C 17.710938 25.160156 17.484375 25.066406 17.375 24.789062 C 17.695312 24.882812 17.894531 25.148438 18.210938 25.1875 C 18.042969 25.015625 17.832031 24.898438 17.730469 24.644531 C 17.96875 24.675781 18.101562 24.867188 18.324219 24.929688 C 18.265625 24.757812 18.09375 24.6875 18.0625 24.476562 C 18.28125 24.609375 18.46875 24.726562 18.710938 24.875 C 18.601562 24.707031 18.453125 24.65625 18.414062 24.496094 C 18.589844 24.484375 18.679688 24.644531 18.832031 24.679688 C 18.867188 24.566406 18.703125 24.53125 18.746094 24.410156 C 18.996094 24.53125 19.171875 24.777344 19.46875 24.855469 C 19.441406 24.664062 19.25 24.617188 19.199219 24.4375 C 19.433594 24.492188 19.554688 24.679688 19.75 24.804688 C 19.691406 24.59375 19.492188 24.496094 19.414062 24.285156 C 19.609375 24.347656 19.726562 24.46875 19.875 24.566406 C 19.875 24.449219 19.746094 24.421875 19.761719 24.300781 C 19.96875 24.363281 20.09375 24.519531 20.21875 24.667969 C 20.273438 24.738281 20.316406 24.808594 20.410156 24.84375 C 20.8125 25 20.878906 25.1875 20.707031 25.585938 C 20.691406 25.621094 20.675781 25.660156 20.65625 25.714844 C 20.652344 25.734375 20.65625 25.730469 20.65625 25.730469 M 29.667969 35 C 29.734375 34.996094 29.773438 34.894531 29.867188 34.933594 C 29.820312 35.136719 29.601562 35.246094 29.578125 35.445312 C 29.636719 35.519531 29.714844 35.449219 29.773438 35.5 C 29.773438 35.554688 29.773438 35.609375 29.773438 35.664062 C 30.019531 35.210938 30.390625 34.890625 30.761719 34.554688 C 31.214844 34.140625 31.566406 33.632812 31.664062 33 C 31.777344 32.269531 31.753906 31.550781 31.503906 30.835938 C 31.316406 30.296875 31.246094 29.734375 31.324219 29.15625 C 31.417969 28.429688 31.601562 27.722656 31.785156 27.015625 C 31.824219 26.871094 31.851562 26.746094 31.65625 26.664062 C 31.503906 27.039062 31.425781 27.429688 31.339844 27.816406 C 31.1875 28.519531 30.976562 29.222656 31.121094 29.957031 C 31.1875 30.296875 31.257812 30.640625 31.34375 30.980469 C 31.578125 31.894531 31.464844 32.785156 31.164062 33.664062 C 30.984375 34.175781 30.605469 34.511719 30.113281 34.742188 C 30.628906 34.066406 31.160156 33.40625 31.125 32.488281 C 30.910156 32.925781 30.746094 33.402344 30.25 33.636719 C 30.078125 33.488281 30.027344 33.289062 30.148438 33 C 30.226562 32.804688 30.339844 32.625 30.433594 32.433594 C 30.488281 32.324219 30.539062 32.207031 30.492188 32.039062 C 30.277344 32.328125 29.894531 32.371094 29.78125 32.707031 C 29.695312 32.695312 29.742188 32.613281 29.695312 32.59375 C 29.460938 32.769531 29.328125 32.976562 29.410156 33.289062 C 29.449219 33.453125 29.40625 33.625 29.222656 33.734375 C 29.1875 33.605469 29.207031 33.480469 29.140625 33.378906 C 28.945312 33.363281 28.824219 33.433594 28.777344 33.628906 C 28.75 33.742188 28.691406 33.851562 28.570312 33.894531 C 28.507812 33.84375 28.585938 33.765625 28.511719 33.734375 C 28.132812 33.8125 28.039062 33.878906 28.042969 34.167969 C 28.042969 34.335938 28 34.441406 27.84375 34.503906 C 27.734375 34.304688 27.921875 34.125 27.898438 33.925781 C 27.640625 34.003906 27.597656 34.023438 27.574219 34.191406 C 27.523438 34.535156 27.277344 34.753906 27.101562 35.023438 C 27.027344 34.941406 27.132812 34.828125 27.023438 34.773438 C 26.957031 34.765625 26.957031 34.902344 26.867188 34.84375 C 26.808594 34.695312 26.945312 34.566406 26.910156 34.410156 C 26.785156 34.371094 26.660156 34.316406 26.542969 34.191406 C 26.457031 34.484375 26.417969 34.769531 26.171875 35.003906 C 26.183594 34.820312 26.246094 34.675781 26.144531 34.550781 C 26.027344 34.535156 25.910156 34.515625 25.769531 34.5 C 25.667969 34.773438 25.5625 35.046875 25.460938 35.320312 C 25.367188 35.039062 25.566406 34.804688 25.511719 34.519531 C 25.316406 34.578125 25.140625 34.523438 24.972656 34.460938 C 24.871094 34.582031 24.957031 34.75 24.824219 34.855469 C 24.753906 34.742188 24.789062 34.601562 24.683594 34.488281 C 24.539062 34.570312 24.371094 34.542969 24.191406 34.527344 C 24.152344 34.796875 24.355469 35.023438 24.296875 35.320312 C 24.175781 35.15625 24.144531 34.996094 24.089844 34.847656 C 23.964844 34.5 23.945312 34.488281 23.597656 34.570312 C 23.492188 34.722656 23.5625 34.882812 23.570312 35.089844 C 23.371094 34.8125 23.273438 34.550781 23.1875 34.296875 C 22.742188 34.28125 22.84375 34.605469 22.855469 34.855469 C 22.726562 34.824219 22.769531 34.6875 22.667969 34.675781 C 22.5625 34.769531 22.679688 34.894531 22.628906 34.996094 C 22.378906 34.753906 22.199219 34.484375 22.136719 34.132812 C 22.109375 33.996094 21.980469 33.941406 21.820312 33.960938 C 21.828125 34.160156 21.984375 34.332031 21.890625 34.53125 C 21.6875 34.351562 21.6875 34.351562 21.679688 34.238281 C 21.652344 33.859375 21.601562 33.808594 21.207031 33.734375 C 21.125 33.75 21.203125 33.847656 21.113281 33.867188 C 20.878906 33.789062 21 33.300781 20.597656 33.410156 C 20.5 33.5 20.550781 33.636719 20.515625 33.769531 C 20.269531 33.585938 20.285156 33.351562 20.308594 33.113281 C 20.339844 32.839844 20.195312 32.699219 19.941406 32.746094 C 19.828125 32.5 19.640625 32.339844 19.28125 32.179688 C 19.199219 32.296875 19.273438 32.398438 19.320312 32.492188 C 19.390625 32.648438 19.484375 32.792969 19.554688 32.949219 C 19.695312 33.277344 19.636719 33.527344 19.339844 33.722656 C 19.460938 33.277344 19.242188 32.960938 19.042969 32.632812 C 18.925781 32.4375 18.859375 32.21875 18.875 31.980469 C 18.894531 31.753906 18.863281 31.53125 18.808594 31.308594 C 18.734375 31.027344 18.777344 30.789062 18.902344 30.640625 C 19.027344 31.0625 19.050781 31.523438 19.460938 31.878906 C 19.367188 31.554688 19.273438 31.300781 19.222656 31.042969 C 19.058594 30.195312 19.074219 29.328125 18.9375 28.476562 C 18.832031 27.835938 18.71875 27.195312 18.523438 26.574219 C 18.496094 26.5 18.488281 26.367188 18.363281 26.398438 C 18.238281 26.433594 18.296875 26.539062 18.320312 26.625 C 18.425781 27.058594 18.535156 27.492188 18.636719 27.925781 C 18.78125 28.570312 18.875 29.21875 18.824219 29.882812 C 18.789062 30.339844 18.6875 30.78125 18.625 31.230469 C 18.53125 31.914062 18.78125 32.527344 19.089844 33.117188 C 19.152344 33.234375 19.25 33.335938 19.234375 33.519531 C 18.816406 33.277344 18.746094 32.832031 18.519531 32.492188 C 18.503906 33.429688 19.050781 34.105469 19.605469 34.777344 C 19.261719 34.691406 18.789062 34.289062 18.617188 33.9375 C 18.265625 33.230469 18.164062 32.46875 18.1875 31.6875 C 18.199219 31.289062 18.34375 30.910156 18.417969 30.519531 C 18.492188 30.113281 18.621094 29.710938 18.578125 29.292969 C 18.496094 28.496094 18.308594 27.722656 18.097656 26.957031 C 18.074219 26.875 18.070312 26.773438 17.960938 26.742188 C 17.839844 26.816406 17.894531 26.910156 17.917969 27.003906 C 17.996094 27.300781 18.066406 27.601562 18.148438 27.898438 C 18.449219 28.996094 18.46875 30.066406 18.128906 31.183594 C 17.742188 32.449219 17.933594 33.667969 19.003906 34.585938 C 19.472656 34.984375 19.800781 35.457031 20.054688 36 C 20.144531 36.191406 20.253906 36.371094 20.460938 36.476562 C 20.460938 36.476562 20.460938 36.476562 20.480469 36.503906 C 20.550781 36.5625 20.609375 36.628906 20.6875 36.675781 C 21.382812 37.078125 22.078125 37.480469 22.820312 37.800781 C 23.226562 37.980469 23.65625 38.070312 24.105469 38.011719 C 24.511719 37.957031 24.914062 37.832031 25.328125 37.96875 C 25.425781 38 25.535156 37.996094 25.640625 38.007812 C 25.949219 38.042969 26.25 38.03125 26.550781 37.886719 C 26.449219 37.816406 26.363281 37.855469 26.28125 37.871094 C 26.09375 37.90625 25.90625 37.890625 25.722656 37.855469 C 25.25 37.769531 24.828125 37.078125 24.992188 36.636719 C 25.117188 36.308594 25.1875 35.972656 25.195312 35.621094 C 25.195312 35.578125 25.175781 35.519531 25.277344 35.511719 C 25.410156 35.753906 25.410156 36.035156 25.425781 36.316406 C 25.523438 36.253906 25.476562 36.128906 25.582031 36.082031 C 25.726562 36.285156 25.59375 36.535156 25.667969 36.753906 C 25.820312 36.667969 25.773438 36.472656 25.914062 36.386719 C 26.007812 36.640625 25.84375 36.863281 25.855469 37.109375 C 26.101562 37.074219 26.179688 36.867188 26.328125 36.757812 C 26.414062 36.769531 26.351562 36.894531 26.453125 36.894531 C 26.550781 36.628906 26.613281 36.335938 26.929688 36.140625 C 26.855469 36.445312 26.6875 36.679688 26.761719 36.960938 C 26.882812 36.730469 26.945312 36.476562 27.0625 36.25 C 27.171875 36.027344 27.34375 35.835938 27.5625 35.699219 C 27.5 35.992188 27.273438 36.203125 27.226562 36.492188 C 27.457031 36.105469 27.761719 35.773438 28.019531 35.421875 C 28.109375 35.449219 28.066406 35.542969 28.179688 35.5625 C 28.496094 35.207031 28.910156 34.9375 29.324219 34.65625 C 28.886719 35.164062 28.734375 35.816406 28.363281 36.347656 C 28.667969 36.164062 28.816406 35.859375 28.929688 35.550781 C 29.171875 34.898438 29.769531 34.601562 30.242188 34.175781 C 30.132812 34.523438 29.835938 34.730469 29.609375 35.023438 C 29.351562 35.21875 29.167969 35.464844 29.117188 35.792969 C 29.28125 35.527344 29.546875 35.324219 29.667969 35 M 24.632812 30.433594 C 24.539062 30.121094 24.417969 29.816406 24.207031 29.5625 C 23.949219 29.246094 23.839844 29.265625 23.609375 29.613281 C 23.277344 30.109375 23.246094 30.675781 23.199219 31.246094 C 23.167969 31.640625 23.246094 31.753906 23.644531 31.8125 C 23.757812 31.832031 23.871094 31.824219 23.984375 31.828125 C 24.207031 31.832031 24.261719 31.699219 24.253906 31.511719 C 24.253906 31.4375 24.171875 31.359375 24.269531 31.289062 C 24.351562 31.320312 24.34375 31.40625 24.378906 31.464844 C 24.433594 31.546875 24.425781 31.703125 24.574219 31.667969 C 24.703125 31.636719 24.679688 31.5 24.6875 31.398438 C 24.710938 31.089844 24.660156 30.78125 24.632812 30.433594 M 25.675781 29.40625 C 25.398438 29.433594 25.316406 29.671875 25.203125 29.863281 C 24.886719 30.386719 24.949219 30.972656 24.957031 31.550781 C 24.957031 31.636719 25.003906 31.703125 25.09375 31.730469 C 25.484375 31.851562 25.871094 31.890625 26.257812 31.71875 C 26.367188 31.667969 26.464844 31.601562 26.445312 31.464844 C 26.382812 30.902344 26.394531 30.324219 26.113281 29.804688 C 26.074219 29.730469 26.046875 29.648438 25.941406 29.613281 C 25.941406 29.871094 26.085938 30.097656 26.015625 30.347656 C 25.992188 30.335938 25.972656 30.328125 25.96875 30.320312 C 25.875 30.023438 25.785156 29.730469 25.675781 29.40625 M 28.347656 29.851562 C 28.328125 29.761719 28.304688 29.675781 28.1875 29.625 C 28.011719 29.761719 27.816406 29.886719 27.609375 29.996094 C 27.507812 30.046875 27.488281 30.144531 27.5 30.246094 C 27.535156 30.527344 27.570312 30.8125 27.609375 31.09375 C 27.625 31.1875 27.679688 31.265625 27.78125 31.273438 C 28.128906 31.304688 28.5 31.089844 28.4375 30.6875 C 28.394531 30.425781 28.378906 30.15625 28.347656 29.851562 M 31.195312 27.175781 C 31.234375 26.90625 31.390625 26.65625 31.351562 26.335938 C 31.207031 26.421875 31.199219 26.515625 31.175781 26.597656 C 30.8125 27.835938 30.664062 29.105469 30.578125 30.386719 C 30.535156 31.03125 30.429688 31.664062 29.941406 32.15625 C 29.917969 32.183594 29.882812 32.21875 29.933594 32.269531 C 29.957031 32.253906 29.984375 32.238281 30.007812 32.21875 C 30.40625 31.847656 30.667969 31.398438 30.75 30.855469 C 30.765625 30.757812 30.777344 30.644531 30.925781 30.675781 C 30.863281 30.265625 30.808594 29.855469 30.816406 29.441406 C 30.828125 28.679688 31.003906 27.949219 31.195312 27.175781 M 22.011719 31.027344 C 22.050781 30.753906 22.089844 30.480469 22.128906 30.207031 C 22.136719 30.15625 22.144531 30.097656 22.097656 30.074219 C 21.882812 29.949219 21.667969 29.835938 21.441406 29.710938 C 21.359375 29.894531 21.417969 30.058594 21.402344 30.214844 C 21.382812 30.371094 21.492188 30.523438 21.429688 30.6875 C 21.324219 30.640625 21.359375 30.511719 21.265625 30.476562 C 21.054688 30.902344 21.253906 31.238281 21.738281 31.28125 C 21.902344 31.296875 22.007812 31.253906 22.011719 31.027344 M 23.015625 31.003906 C 23.019531 30.90625 23.027344 30.8125 23.035156 30.714844 C 23.066406 30.257812 23.066406 30.257812 22.632812 30.21875 C 22.601562 30.214844 22.570312 30.207031 22.539062 30.203125 C 22.410156 30.179688 22.339844 30.21875 22.324219 30.359375 C 22.300781 30.59375 22.257812 30.824219 22.230469 31.058594 C 22.191406 31.378906 22.316406 31.539062 22.640625 31.613281 C 22.835938 31.660156 22.957031 31.601562 22.976562 31.386719 C 22.984375 31.273438 22.996094 31.160156 23.015625 31.003906 M 27.375 30.890625 C 27.363281 30.835938 27.355469 30.78125 27.34375 30.722656 C 27.261719 30.234375 27.261719 30.242188 26.789062 30.207031 C 26.617188 30.195312 26.558594 30.273438 26.566406 30.414062 C 26.585938 30.75 26.621094 31.089844 26.65625 31.429688 C 26.675781 31.613281 26.800781 31.644531 26.957031 31.617188 C 27.320312 31.5625 27.445312 31.351562 27.375 30.890625 M 28.933594 29.300781 C 28.566406 29.550781 28.5 29.894531 28.609375 30.300781 C 28.628906 30.367188 28.625 30.445312 28.628906 30.519531 C 28.636719 30.625 28.640625 30.746094 28.761719 30.78125 C 28.886719 30.816406 29.023438 30.816406 29.128906 30.710938 C 29.234375 30.605469 29.3125 30.484375 29.292969 30.324219 C 29.253906 30.03125 29.21875 29.742188 29.175781 29.453125 C 29.15625 29.34375 29.101562 29.25 28.933594 29.300781 M 20.339844 30.171875 C 20.335938 30.253906 20.316406 30.335938 20.324219 30.414062 C 20.34375 30.632812 20.539062 30.792969 20.753906 30.800781 C 21.011719 30.808594 20.972656 30.621094 20.988281 30.464844 C 20.996094 30.410156 21.007812 30.355469 21.019531 30.296875 C 21.066406 29.945312 21.097656 29.609375 20.742188 29.367188 C 20.5625 29.25 20.488281 29.242188 20.445312 29.457031 C 20.402344 29.679688 20.382812 29.90625 20.339844 30.171875 M 26.476562 33.527344 C 26.460938 33.589844 26.445312 33.652344 26.433594 33.714844 C 26.417969 33.820312 26.421875 33.910156 26.546875 33.949219 C 26.664062 33.984375 26.769531 33.957031 26.820312 33.851562 C 26.976562 33.519531 27.101562 33.171875 27.148438 32.800781 C 26.808594 32.738281 26.640625 32.835938 26.5625 33.132812 C 26.535156 33.25 26.511719 33.367188 26.476562 33.527344 M 25.179688 33.027344 C 25.136719 33.039062 25.078125 33.042969 25.046875 33.074219 C 24.886719 33.230469 24.945312 33.914062 25.125 34.058594 C 25.246094 34.152344 25.335938 34.113281 25.402344 33.992188 C 25.480469 33.839844 25.507812 33.667969 25.546875 33.503906 C 25.628906 33.132812 25.597656 33.085938 25.179688 33.027344 M 24.714844 33.808594 C 24.757812 33.65625 24.742188 33.5 24.738281 33.347656 C 24.734375 33.085938 24.65625 33.007812 24.429688 33.027344 C 24.167969 33.054688 24.101562 33.128906 24.144531 33.390625 C 24.167969 33.542969 24.199219 33.695312 24.246094 33.839844 C 24.28125 33.949219 24.304688 34.101562 24.457031 34.105469 C 24.613281 34.113281 24.660156 33.972656 24.714844 33.808594 M 23.246094 33.605469 C 23.207031 33.433594 23.167969 33.257812 23.132812 33.085938 C 23.097656 32.910156 22.972656 32.828125 22.816406 32.789062 C 22.632812 32.738281 22.546875 32.816406 22.589844 33 C 22.652344 33.261719 22.734375 33.515625 22.839844 33.757812 C 22.898438 33.902344 22.988281 33.992188 23.15625 33.945312 C 23.328125 33.894531 23.273438 33.761719 23.246094 33.605469 M 25.699219 33.933594 C 25.722656 34.070312 25.824219 34.125 25.941406 34.136719 C 26.074219 34.148438 26.113281 34.023438 26.144531 33.925781 C 26.214844 33.703125 26.269531 33.472656 26.332031 33.246094 C 26.351562 33.171875 26.355469 33.101562 26.28125 33.050781 C 26.121094 32.945312 25.824219 33.058594 25.792969 33.242188 C 25.757812 33.457031 25.730469 33.675781 25.699219 33.933594 M 23.644531 33.023438 C 23.503906 33.023438 23.339844 33.015625 23.375 33.226562 C 23.417969 33.472656 23.46875 33.71875 23.574219 33.949219 C 23.621094 34.058594 23.683594 34.160156 23.828125 34.113281 C 23.960938 34.070312 24.027344 33.980469 24.003906 33.835938 C 23.980469 33.660156 23.9375 33.484375 23.925781 33.308594 C 23.914062 33.144531 23.84375 33.054688 23.644531 33.023438 M 27.773438 33.074219 C 27.804688 32.964844 27.84375 32.859375 27.859375 32.746094 C 27.871094 32.652344 27.953125 32.535156 27.820312 32.464844 C 27.6875 32.394531 27.59375 32.492188 27.503906 32.578125 C 27.4375 32.636719 27.402344 32.71875 27.378906 32.804688 C 27.328125 32.984375 27.285156 33.164062 27.234375 33.34375 C 27.203125 33.457031 27.210938 33.554688 27.328125 33.609375 C 27.445312 33.664062 27.53125 33.601562 27.597656 33.511719 C 27.6875 33.394531 27.722656 33.25 27.773438 33.074219 M 22.226562 33.605469 C 22.40625 33.644531 22.5 33.558594 22.472656 33.386719 C 22.433594 33.164062 22.367188 32.949219 22.300781 32.730469 C 22.265625 32.609375 22.171875 32.527344 22.058594 32.476562 C 21.925781 32.414062 21.816406 32.449219 21.839844 32.609375 C 21.886719 32.957031 21.925781 33.316406 22.226562 33.605469 M 28.34375 33.242188 C 28.460938 33 28.519531 32.738281 28.550781 32.472656 C 28.558594 32.390625 28.578125 32.300781 28.480469 32.257812 C 28.394531 32.222656 28.324219 32.273438 28.257812 32.324219 C 28.171875 32.394531 28.128906 32.488281 28.101562 32.59375 C 28.0625 32.75 28.023438 32.90625 27.988281 33.066406 C 27.964844 33.15625 27.902344 33.257812 28.019531 33.324219 C 28.128906 33.386719 28.238281 33.378906 28.34375 33.242188 M 21.625 32.695312 C 21.597656 32.550781 21.566406 32.402344 21.4375 32.308594 C 21.328125 32.230469 21.179688 32.226562 21.171875 32.371094 C 21.152344 32.695312 21.21875 33.015625 21.414062 33.289062 C 21.472656 33.375 21.582031 33.378906 21.679688 33.335938 C 21.800781 33.285156 21.75 33.191406 21.726562 33.109375 C 21.699219 32.984375 21.667969 32.855469 21.625 32.695312 M 28.703125 32.8125 C 28.695312 32.894531 28.632812 33 28.753906 33.039062 C 28.863281 33.070312 28.9375 32.992188 28.984375 32.902344 C 29.105469 32.640625 29.136719 32.359375 29.167969 32.078125 C 29.183594 31.957031 29.085938 31.933594 28.988281 31.980469 C 28.863281 32.042969 28.804688 32.164062 28.78125 32.292969 C 28.753906 32.453125 28.734375 32.613281 28.703125 32.8125 M 30.480469 32.945312 C 30.425781 33.074219 30.332031 33.191406 30.371094 33.355469 C 30.789062 33.054688 31.195312 31.59375 30.960938 31.214844 C 30.898438 31.371094 30.808594 31.523438 30.832031 31.679688 C 30.902344 32.148438 30.75 32.542969 30.480469 32.945312 M 20.75 32.007812 C 20.664062 31.984375 20.609375 32.007812 20.574219 32.089844 C 20.507812 32.261719 20.660156 32.871094 20.800781 32.984375 C 20.898438 33.058594 21.019531 33.066406 21.003906 32.925781 C 20.972656 32.617188 21 32.289062 20.75 32.007812 M 19.9375 29.3125 C 19.769531 29.84375 19.804688 30.171875 20.0625 30.316406 C 20.160156 30.046875 20.164062 29.765625 20.191406 29.488281 C 20.207031 29.347656 20.113281 29.269531 19.9375 29.3125 M 29.707031 29.59375 C 29.695312 29.53125 29.683594 29.46875 29.671875 29.402344 C 29.660156 29.347656 29.648438 29.28125 29.578125 29.285156 C 29.5 29.289062 29.417969 29.332031 29.421875 29.414062 C 29.4375 29.71875 29.460938 30.027344 29.550781 30.339844 C 29.75 30.210938 29.785156 30.152344 29.765625 29.972656 C 29.753906 29.859375 29.730469 29.746094 29.707031 29.59375 M 27.683594 37.421875 C 28.046875 37.21875 28.410156 37.015625 28.773438 36.8125 C 28.761719 36.789062 28.746094 36.765625 28.734375 36.742188 C 28.136719 36.875 27.6875 37.265625 27.1875 37.574219 C 27.199219 37.597656 27.210938 37.617188 27.222656 37.640625 C 27.363281 37.574219 27.507812 37.507812 27.683594 37.421875 M 30.144531 29.160156 C 30.121094 29.105469 30.136719 29.027344 30.0625 29 C 29.894531 29.148438 29.890625 29.308594 30.058594 29.472656 C 30.148438 29.398438 30.160156 29.300781 30.144531 29.160156 M 27.976562 36.355469 C 28.117188 36.164062 28.257812 35.96875 28.421875 35.75 C 28.132812 35.859375 27.925781 36.152344 27.976562 36.355469 M 19.675781 29.089844 C 19.605469 29.019531 19.542969 29.027344 19.511719 29.117188 C 19.472656 29.238281 19.445312 29.363281 19.605469 29.441406 C 19.679688 29.335938 19.71875 29.234375 19.675781 29.089844 M 20.371094 32.527344 C 20.332031 32.421875 20.394531 32.277344 20.242188 32.195312 C 20.144531 32.320312 20.1875 32.429688 20.261719 32.527344 C 20.28125 32.550781 20.308594 32.679688 20.371094 32.527344 M 29.519531 32.199219 C 29.363281 32.214844 29.332031 32.304688 29.414062 32.542969 C 29.5 32.445312 29.53125 32.347656 29.519531 32.199219 M 27.472656 36.484375 C 27.464844 36.542969 27.425781 36.609375 27.53125 36.640625 C 27.628906 36.546875 27.632812 36.421875 27.605469 36.285156 C 27.566406 36.339844 27.523438 36.398438 27.472656 36.484375 Z M 27.472656 36.484375 "/>
<path style=" stroke:none;fill-rule:nonzero;fill:rgb(0%,0%,0%);fill-opacity:1;" d="M 31.464844 34.71875 C 31.90625 34.164062 32.125 33.53125 32.210938 32.851562 C 32.320312 31.945312 32.265625 31.058594 31.945312 30.1875 C 31.734375 29.605469 31.921875 29.027344 32.089844 28.46875 C 32.273438 27.835938 32.5 27.214844 32.695312 26.589844 C 32.742188 26.433594 32.867188 26.414062 32.984375 26.355469 C 33.933594 25.886719 34.613281 25.183594 34.863281 24.125 C 34.9375 23.800781 34.933594 23.460938 34.800781 23.144531 C 34.75 23.027344 34.75 22.929688 34.828125 22.824219 C 35.320312 22.164062 35.4375 21.386719 35.53125 20.597656 C 35.574219 20.238281 35.601562 19.871094 35.636719 19.507812 C 35.644531 19.441406 35.648438 19.371094 35.707031 19.332031 C 35.953125 19.171875 36.15625 18.972656 36.324219 18.707031 C 37.578125 21.378906 37.882812 24.144531 37.191406 26.996094 C 36.359375 30.414062 34.394531 33.019531 31.429688 34.902344 C 31.351562 34.800781 31.433594 34.777344 31.464844 34.71875 Z M 31.464844 34.71875 "/>
<path style=" stroke:none;fill-rule:nonzero;fill:rgb(0%,0%,0%);fill-opacity:1;" d="M 12.191406 23.441406 C 12.261719 21.902344 12.601562 20.449219 13.207031 19.035156 C 13.496094 19.199219 13.726562 19.34375 13.734375 19.710938 C 13.753906 20.433594 13.855469 21.152344 14.023438 21.855469 C 14.113281 22.234375 14.3125 22.578125 14.558594 22.886719 C 14.636719 22.984375 14.660156 23.066406 14.625 23.195312 C 14.496094 23.660156 14.507812 24.132812 14.699219 24.582031 C 15.105469 25.53125 15.789062 26.183594 16.789062 26.484375 C 16.933594 26.527344 17.011719 26.597656 17.054688 26.730469 C 17.332031 27.5625 17.640625 28.382812 17.804688 29.25 C 17.882812 29.648438 17.816406 30.023438 17.691406 30.398438 C 17.308594 31.542969 17.375 32.683594 17.730469 33.820312 C 17.824219 34.117188 17.988281 34.382812 18.167969 34.632812 C 18.214844 34.695312 18.292969 34.742188 18.28125 34.839844 C 18.195312 34.878906 18.144531 34.808594 18.089844 34.773438 C 15.003906 32.753906 13.09375 29.945312 12.382812 26.328125 C 12.195312 25.378906 12.171875 24.421875 12.191406 23.441406 Z M 12.191406 23.441406 "/>
<path style=" stroke:none;fill-rule:nonzero;fill:rgb(0%,0%,0%);fill-opacity:1;" d="M 7.378906 21.011719 C 7.808594 18.65625 8.675781 16.5 9.96875 14.511719 C 11.136719 12.722656 12.585938 11.195312 14.304688 9.921875 C 14.554688 9.738281 14.851562 9.703125 15.148438 9.8125 C 15.121094 9.921875 15.015625 9.949219 14.941406 10.003906 C 11.210938 12.679688 8.84375 16.253906 7.875 20.746094 C 7.558594 22.203125 7.460938 23.679688 7.542969 25.160156 C 7.734375 28.523438 8.804688 31.585938 10.78125 34.316406 C 13.195312 37.648438 16.394531 39.855469 20.355469 40.964844 C 22.179688 41.476562 24.050781 41.667969 25.933594 41.523438 C 31.308594 41.113281 35.636719 38.742188 38.863281 34.414062 C 40.496094 32.234375 41.53125 29.777344 41.960938 27.09375 C 42.640625 22.828125 41.875 18.828125 39.625 15.125 C 39.488281 14.90625 39.355469 14.675781 39.191406 14.476562 C 39 14.242188 39.046875 14.035156 39.199219 13.800781 C 39.386719 13.902344 39.4375 14.109375 39.570312 14.242188 C 39.75 14.417969 39.621094 14.605469 39.585938 14.820312 C 40.019531 14.773438 40.125 15.117188 40.28125 15.390625 C 41.414062 17.375 42.15625 19.492188 42.449219 21.761719 C 43.101562 26.769531 41.902344 31.296875 38.773438 35.257812 C 35.992188 38.773438 32.351562 40.917969 27.933594 41.722656 C 26.316406 42.015625 24.6875 42.078125 23.054688 41.902344 C 19.382812 41.511719 16.125 40.136719 13.320312 37.730469 C 10.351562 35.179688 8.421875 31.984375 7.535156 28.171875 C 7.277344 27.058594 7.140625 25.933594 7.105469 24.792969 C 7.066406 23.527344 7.164062 22.277344 7.378906 21.011719 Z M 7.378906 21.011719 "/>
<path style=" stroke:none;fill-rule:nonzero;fill:rgb(0%,0%,0%);fill-opacity:1;" d="M 25.832031 23.527344 C 27.300781 23.582031 28.75 23.582031 30.199219 23.566406 C 31.167969 23.558594 32.128906 23.472656 33.089844 23.363281 C 34.058594 23.253906 34.726562 22.605469 34.941406 21.609375 C 35.113281 20.816406 35.199219 20.007812 35.242188 19.195312 C 35.296875 18.222656 35.339844 17.246094 35.332031 16.269531 C 35.328125 15.871094 35.300781 15.476562 35.292969 15.078125 C 35.289062 14.863281 35.398438 14.796875 35.582031 14.890625 C 35.980469 15.089844 36.253906 15.355469 36.203125 15.859375 C 36.121094 16.683594 36.070312 17.511719 36.015625 18.335938 C 35.996094 18.574219 35.90625 18.761719 35.726562 18.90625 C 35.601562 19.007812 35.566406 19.136719 35.558594 19.289062 C 35.527344 20.085938 35.445312 20.878906 35.265625 21.65625 C 35.09375 22.410156 34.726562 23.035156 34.03125 23.414062 C 33.597656 23.652344 33.117188 23.691406 32.640625 23.742188 C 30.660156 23.957031 28.671875 23.929688 26.691406 23.871094 C 24.078125 23.796875 21.472656 23.953125 18.859375 23.890625 C 17.957031 23.871094 17.058594 23.792969 16.164062 23.679688 C 14.929688 23.523438 14.304688 22.6875 14.050781 21.5 C 13.886719 20.75 13.824219 19.988281 13.765625 19.226562 C 13.757812 19.085938 13.714844 18.984375 13.601562 18.898438 C 13.4375 18.765625 13.335938 18.585938 13.320312 18.375 C 13.25 17.507812 13.1875 16.640625 13.125 15.773438 C 13.097656 15.433594 13.257812 15.191406 13.535156 15.027344 C 13.699219 14.929688 13.757812 14.804688 13.753906 14.625 C 13.75 14.292969 13.792969 13.960938 13.84375 13.632812 C 13.933594 13.050781 14.25 12.636719 14.75 12.347656 C 14.835938 12.300781 14.929688 12.265625 14.976562 12.167969 C 15.351562 11.363281 16.035156 11.097656 16.863281 11.074219 C 17.644531 11.050781 18.425781 10.992188 19.203125 10.980469 C 20.863281 10.949219 22.523438 10.960938 24.183594 10.917969 C 25.492188 10.882812 26.800781 10.953125 28.109375 10.925781 C 28.195312 10.925781 28.289062 10.898438 28.394531 11.007812 C 27.90625 11.214844 27.597656 11.65625 26.972656 11.648438 C 24.777344 11.625 22.582031 11.660156 20.386719 11.695312 C 19.71875 11.707031 19.050781 11.726562 18.382812 11.71875 C 18.242188 11.71875 18.097656 11.710938 17.898438 11.632812 C 18.394531 11.4375 18.863281 11.414062 19.3125 11.300781 C 18.335938 11.296875 17.359375 11.277344 16.386719 11.390625 C 16.15625 11.417969 15.953125 11.527344 15.761719 11.652344 C 15.691406 11.699219 15.609375 11.75 15.625 11.882812 C 19.464844 11.882812 23.308594 11.882812 27.152344 11.882812 C 27.066406 12.226562 26.964844 12.300781 26.59375 12.300781 C 23.25 12.308594 19.90625 12.3125 16.5625 12.324219 C 16.15625 12.328125 15.75 12.359375 15.355469 12.464844 C 14.582031 12.671875 14.183594 13.183594 14.121094 13.992188 C 14.011719 15.457031 14.011719 16.917969 14.066406 18.382812 C 14.105469 19.40625 14.167969 20.425781 14.367188 21.433594 C 14.449219 21.847656 14.601562 22.230469 14.847656 22.570312 C 15.210938 23.074219 15.722656 23.304688 16.324219 23.371094 C 18.371094 23.613281 20.429688 23.597656 22.488281 23.554688 C 23.59375 23.53125 24.699219 23.527344 25.832031 23.527344 Z M 25.832031 23.527344 "/>
<path style=" stroke:none;fill-rule:nonzero;fill:rgb(0%,0%,0%);fill-opacity:1;" d="M 21.929688 8.066406 C 22.246094 7.246094 22.558594 6.445312 22.871094 5.640625 C 22.691406 5.527344 22.507812 5.625 22.355469 5.550781 C 22.3125 5.46875 22.351562 5.402344 22.378906 5.335938 C 22.515625 4.980469 22.660156 4.625 22.792969 4.269531 C 22.847656 4.117188 22.9375 4.046875 23.101562 4.050781 C 23.6875 4.054688 24.273438 4.054688 24.859375 4.046875 C 25.027344 4.046875 25.105469 4.125 25.144531 4.28125 C 25.277344 4.757812 25.417969 5.234375 25.558594 5.707031 C 25.589844 5.8125 25.597656 5.933594 25.691406 6.015625 C 25.796875 5.996094 25.855469 5.910156 25.925781 5.847656 C 26.515625 5.300781 27.105469 4.75 27.691406 4.199219 C 27.800781 4.097656 27.914062 4.046875 28.0625 4.046875 C 28.480469 4.054688 28.902344 4.050781 29.296875 4.050781 C 29.378906 4.175781 29.320312 4.25 29.292969 4.320312 C 28.648438 5.972656 28 7.621094 27.359375 9.273438 C 27.28125 9.476562 27.179688 9.550781 26.964844 9.539062 C 26.664062 9.523438 26.363281 9.539062 26.0625 9.535156 C 25.976562 9.535156 25.882812 9.558594 25.777344 9.464844 C 26.027344 8.820312 26.277344 8.160156 26.53125 7.503906 C 26.5 7.488281 26.472656 7.46875 26.445312 7.453125 C 25.753906 8.09375 25.0625 8.738281 24.328125 9.421875 C 24.125 8.742188 23.941406 8.113281 23.753906 7.46875 C 23.636719 7.523438 23.625 7.617188 23.59375 7.695312 C 23.382812 8.230469 23.167969 8.765625 22.964844 9.304688 C 22.898438 9.480469 22.804688 9.542969 22.621094 9.539062 C 22.226562 9.53125 21.828125 9.535156 21.367188 9.535156 C 21.566406 9.015625 21.746094 8.550781 21.929688 8.066406 Z M 21.929688 8.066406 "/>
<path style=" stroke:none;fill-rule:nonzero;fill:rgb(0%,0%,0%);fill-opacity:1;" d="M 40.113281 19.597656 C 39.59375 17.90625 38.820312 16.355469 37.789062 14.90625 C 38.011719 14.835938 38.160156 14.847656 38.28125 15.03125 C 39.617188 16.988281 40.488281 19.132812 40.890625 21.464844 C 41.074219 22.542969 41.164062 23.628906 41.121094 24.71875 C 40.976562 28.40625 39.765625 31.699219 37.414062 34.554688 C 35.453125 36.933594 33.007812 38.628906 30.085938 39.625 C 28.71875 40.09375 27.3125 40.371094 25.867188 40.453125 C 21.894531 40.675781 18.292969 39.621094 15.113281 37.238281 C 11.832031 34.773438 9.78125 31.503906 8.925781 27.488281 C 8.675781 26.324219 8.550781 25.140625 8.59375 23.953125 C 8.777344 18.609375 11.003906 14.316406 15.265625 11.085938 C 16.011719 10.519531 16.820312 10.050781 17.660156 9.632812 C 17.722656 9.601562 17.785156 9.550781 17.878906 9.578125 C 17.910156 9.652344 17.941406 9.730469 17.988281 9.835938 C 17.757812 9.957031 17.535156 10.085938 17.304688 10.199219 C 16.730469 10.484375 16.226562 10.894531 15.621094 11.132812 C 15.511719 11.175781 15.40625 11.253906 15.324219 11.339844 C 14.609375 12.121094 13.75 12.746094 13.042969 13.539062 C 11.34375 15.457031 10.148438 17.632812 9.472656 20.101562 C 9.011719 21.78125 8.84375 23.492188 8.960938 25.222656 C 9.214844 28.972656 10.617188 32.25 13.171875 35.015625 C 15.589844 37.640625 18.570312 39.261719 22.078125 39.90625 C 23.605469 40.1875 25.148438 40.210938 26.695312 40.039062 C 29.230469 39.75 31.558594 38.890625 33.679688 37.476562 C 35.851562 36.027344 37.5625 34.15625 38.828125 31.867188 C 39.714844 30.257812 40.304688 28.542969 40.59375 26.730469 C 40.804688 25.410156 40.847656 24.082031 40.722656 22.746094 C 40.621094 21.683594 40.421875 20.640625 40.113281 19.597656 Z M 40.113281 19.597656 "/>
<path style=" stroke:none;fill-rule:nonzero;fill:rgb(0%,0%,0%);fill-opacity:1;" d="M 38.867188 4.050781 C 39.589844 4.0625 40.292969 4.003906 40.988281 4.074219 C 41.753906 4.152344 42.15625 4.746094 41.976562 5.5 C 41.75 6.441406 41.117188 7.039062 40.285156 7.46875 C 40.171875 7.523438 40.019531 7.546875 40.058594 7.730469 C 40.09375 7.902344 40.21875 7.988281 40.390625 8 C 40.550781 8.011719 40.714844 8.007812 40.875 8.011719 C 40.972656 8.015625 41.074219 7.992188 41.171875 8.097656 C 41 8.539062 40.820312 8.988281 40.644531 9.441406 C 40.605469 9.535156 40.519531 9.535156 40.4375 9.535156 C 40.105469 9.535156 39.773438 9.546875 39.4375 9.53125 C 39.09375 9.519531 38.816406 9.371094 38.632812 9.0625 C 38.378906 8.644531 38.125 8.230469 37.867188 7.8125 C 37.828125 7.746094 37.78125 7.679688 37.734375 7.613281 C 37.628906 7.664062 37.625 7.761719 37.59375 7.839844 C 37.402344 8.324219 37.207031 8.808594 37.027344 9.296875 C 36.960938 9.480469 36.859375 9.546875 36.667969 9.539062 C 36.273438 9.527344 35.875 9.535156 35.46875 9.535156 C 35.476562 9.277344 35.589844 9.09375 35.664062 8.902344 C 36.039062 7.921875 36.421875 6.945312 36.804688 5.96875 C 36.925781 5.667969 37 5.550781 36.542969 5.578125 C 36.507812 5.578125 36.464844 5.566406 36.433594 5.5625 C 36.371094 5.457031 36.429688 5.375 36.460938 5.296875 C 36.589844 4.953125 36.730469 4.617188 36.855469 4.273438 C 36.914062 4.109375 37.011719 4.046875 37.183594 4.046875 C 37.738281 4.054688 38.289062 4.050781 38.867188 4.050781 M 38.644531 5.339844 C 38.359375 5.640625 38.332031 6.042969 38.144531 6.425781 C 38.699219 6.425781 39.195312 6.441406 39.6875 6.417969 C 39.980469 6.402344 40.199219 6.222656 40.316406 5.941406 C 40.464844 5.578125 40.320312 5.34375 39.929688 5.332031 C 39.515625 5.324219 39.097656 5.332031 38.644531 5.339844 Z M 38.644531 5.339844 "/>
<path style=" stroke:none;fill-rule:nonzero;fill:rgb(0%,0%,0%);fill-opacity:1;" d="M 30.617188 9.535156 C 30.023438 9.535156 29.460938 9.535156 28.910156 9.535156 C 28.859375 9.394531 28.914062 9.316406 28.945312 9.234375 C 29.371094 8.136719 29.800781 7.039062 30.226562 5.9375 C 30.355469 5.597656 30.355469 5.597656 29.992188 5.578125 C 29.9375 5.574219 29.882812 5.5625 29.832031 5.554688 C 29.777344 5.441406 29.839844 5.351562 29.875 5.265625 C 30 4.929688 30.136719 4.601562 30.261719 4.265625 C 30.316406 4.113281 30.402344 4.046875 30.566406 4.046875 C 32.285156 4.050781 34 4.050781 35.71875 4.050781 C 35.78125 4.050781 35.847656 4.066406 35.902344 4.074219 C 35.964844 4.179688 35.902344 4.257812 35.871094 4.339844 C 35.742188 4.679688 35.597656 5.015625 35.476562 5.363281 C 35.417969 5.527344 35.320312 5.582031 35.152344 5.582031 C 34.199219 5.574219 33.246094 5.578125 32.292969 5.578125 C 31.839844 5.582031 31.90625 5.535156 31.738281 5.957031 C 31.710938 6.03125 31.6875 6.105469 31.636719 6.246094 C 32.511719 6.246094 33.347656 6.246094 34.25 6.246094 C 34.09375 6.632812 33.976562 6.949219 33.84375 7.261719 C 33.796875 7.371094 33.675781 7.339844 33.582031 7.339844 C 32.914062 7.339844 32.246094 7.355469 31.578125 7.332031 C 31.289062 7.324219 31.117188 7.40625 31.058594 7.695312 C 31.042969 7.78125 30.976562 7.855469 30.996094 8 C 32.117188 8.046875 33.25 7.96875 34.429688 8.042969 C 34.230469 8.539062 34.054688 8.992188 33.871094 9.441406 C 33.820312 9.566406 33.695312 9.535156 33.59375 9.535156 C 32.609375 9.539062 31.625 9.535156 30.617188 9.535156 Z M 30.617188 9.535156 "/>
<path style=" stroke:none;fill-rule:nonzero;fill:rgb(0%,0%,0%);fill-opacity:1;" d="M 15.25 4.464844 C 15.410156 4.050781 15.410156 4.050781 15.828125 4.050781 C 17.121094 4.050781 18.414062 4.050781 19.707031 4.050781 C 20.03125 4.050781 20.046875 4.0625 20.03125 4.378906 C 19.949219 6 19.863281 7.625 19.785156 9.25 C 19.773438 9.464844 19.699219 9.550781 19.476562 9.542969 C 19.117188 9.527344 18.757812 9.53125 18.402344 9.539062 C 18.210938 9.542969 18.136719 9.476562 18.152344 9.28125 C 18.183594 8.824219 18.207031 8.84375 17.707031 8.84375 C 17.21875 8.847656 16.730469 8.851562 16.242188 8.84375 C 16.078125 8.839844 15.949219 8.878906 15.878906 9.03125 C 15.671875 9.472656 15.320312 9.605469 14.847656 9.542969 C 14.582031 9.507812 14.304688 9.539062 14.03125 9.539062 C 14.019531 9.515625 14.007812 9.492188 13.996094 9.46875 C 14.921875 8.191406 15.847656 6.917969 16.8125 5.582031 C 16.125 5.582031 15.511719 5.582031 14.855469 5.582031 C 14.9375 5.167969 15.125 4.835938 15.25 4.464844 M 17.175781 7.84375 C 17.453125 7.84375 17.730469 7.835938 18.003906 7.847656 C 18.179688 7.851562 18.246094 7.792969 18.25 7.609375 C 18.269531 7.066406 18.308594 6.527344 18.335938 5.984375 C 18.339844 5.902344 18.339844 5.820312 18.339844 5.738281 C 18.320312 5.734375 18.304688 5.734375 18.285156 5.730469 C 17.789062 6.410156 17.289062 7.09375 16.789062 7.777344 C 16.921875 7.863281 17.03125 7.835938 17.175781 7.84375 Z M 17.175781 7.84375 "/>
<path style=" stroke:none;fill-rule:nonzero;fill:rgb(0%,0%,0%);fill-opacity:1;" d="M 5.207031 23.324219 C 5.304688 21.445312 5.71875 19.652344 6.390625 17.921875 C 6.964844 16.449219 7.738281 15.089844 8.675781 13.820312 C 8.722656 13.757812 8.753906 13.675781 8.921875 13.625 C 6.558594 17.964844 5.570312 22.519531 6.378906 27.375 C 7.1875 32.246094 9.5625 36.265625 13.222656 39.574219 C 13.105469 39.628906 13.046875 39.5625 12.988281 39.519531 C 9.09375 36.800781 6.640625 33.109375 5.59375 28.480469 C 5.238281 26.910156 5.117188 25.316406 5.167969 23.710938 C 5.171875 23.589844 5.191406 23.46875 5.207031 23.324219 Z M 5.207031 23.324219 "/>
<path style=" stroke:none;fill-rule:nonzero;fill:rgb(0%,0%,0%);fill-opacity:1;" d="M 12.84375 4.046875 C 13.375 4.046875 13.882812 4.046875 14.421875 4.046875 C 14.378906 4.335938 14.269531 4.546875 14.183594 4.757812 C 14.074219 5.027344 14.054688 5.386719 13.820312 5.539062 C 13.597656 5.679688 13.265625 5.574219 12.980469 5.578125 C 12.484375 5.585938 11.988281 5.574219 11.492188 5.582031 C 10.679688 5.59375 9.839844 6.398438 9.820312 7.175781 C 9.808594 7.664062 10.09375 7.972656 10.582031 8.003906 C 11.398438 8.058594 11.386719 8.050781 11.683594 7.285156 C 11.972656 6.546875 11.769531 6.699219 12.546875 6.6875 C 12.816406 6.683594 13.09375 6.660156 13.351562 6.707031 C 13.410156 6.816406 13.355469 6.890625 13.328125 6.960938 C 13.027344 7.742188 12.71875 8.519531 12.421875 9.304688 C 12.351562 9.488281 12.25 9.546875 12.058594 9.542969 C 11.359375 9.53125 10.660156 9.539062 9.960938 9.539062 C 8.632812 9.53125 7.875 8.53125 8.21875 7.238281 C 8.695312 5.457031 10.53125 4.046875 12.378906 4.046875 C 12.523438 4.046875 12.671875 4.046875 12.84375 4.046875 Z M 12.84375 4.046875 "/>
<path style=" stroke:none;fill-rule:nonzero;fill:rgb(0%,0%,0%);fill-opacity:1;" d="M 44.351562 27.054688 C 43.941406 30.402344 42.695312 33.378906 40.597656 35.992188 C 39.566406 37.277344 38.359375 38.375 36.953125 39.257812 C 39.527344 36.621094 41.542969 33.648438 42.683594 30.117188 C 43.820312 26.589844 43.929688 22.996094 43.441406 19.351562 C 44.402344 21.835938 44.644531 24.402344 44.351562 27.054688 Z M 44.351562 27.054688 "/>
<path style=" stroke:none;fill-rule:nonzero;fill:rgb(0%,0%,0%);fill-opacity:1;" d="M 39.6875 10.921875 C 39.808594 10.929688 39.90625 10.90625 40.03125 10.976562 C 39.957031 11.296875 39.824219 11.609375 39.691406 11.917969 C 39.648438 12.015625 39.535156 11.980469 39.449219 11.980469 C 38.828125 11.984375 38.210938 11.980469 37.59375 11.980469 C 37.238281 11.980469 37.195312 12.023438 37.164062 12.441406 C 37.726562 12.441406 38.289062 12.441406 38.871094 12.441406 C 38.847656 12.703125 38.746094 12.898438 38.667969 13.101562 C 38.625 13.21875 38.511719 13.199219 38.417969 13.199219 C 37.992188 13.203125 37.570312 13.199219 37.148438 13.199219 C 36.792969 13.203125 36.75 13.246094 36.722656 13.65625 C 37.484375 13.65625 38.246094 13.65625 39.042969 13.65625 C 38.96875 14.023438 38.835938 14.332031 38.703125 14.640625 C 38.671875 14.710938 38.59375 14.710938 38.53125 14.710938 C 37.480469 14.710938 36.429688 14.710938 35.378906 14.707031 C 35.351562 14.707031 35.320312 14.691406 35.238281 14.671875 C 35.554688 13.789062 35.871094 12.917969 36.179688 12.058594 C 36.074219 11.957031 35.949219 12.015625 35.832031 11.929688 C 35.898438 11.617188 36.027344 11.3125 36.160156 11.011719 C 36.210938 10.890625 36.339844 10.925781 36.441406 10.925781 C 37.515625 10.921875 38.589844 10.921875 39.6875 10.921875 Z M 39.6875 10.921875 "/>
<path style=" stroke:none;fill-rule:nonzero;fill:rgb(0%,0%,0%);fill-opacity:1;" d="M 34.347656 13.65625 C 34.5 13.660156 34.515625 13.734375 34.480469 13.835938 C 34.390625 14.082031 34.296875 14.324219 34.210938 14.570312 C 34.175781 14.667969 34.113281 14.710938 34.011719 14.710938 C 32.953125 14.707031 31.894531 14.707031 30.835938 14.703125 C 30.8125 14.703125 30.792969 14.6875 30.714844 14.664062 C 31.03125 13.78125 31.347656 12.902344 31.660156 12.035156 C 31.535156 11.941406 31.40625 12.019531 31.28125 11.914062 C 31.394531 11.625 31.507812 11.324219 31.625 11.023438 C 31.65625 10.941406 31.730469 10.925781 31.804688 10.925781 C 32.984375 10.925781 34.164062 10.925781 35.34375 10.929688 C 35.394531 10.929688 35.441406 10.933594 35.503906 11.019531 C 35.402344 11.292969 35.292969 11.597656 35.175781 11.894531 C 35.125 12.015625 35.007812 11.980469 34.917969 11.980469 C 34.316406 11.984375 33.714844 11.980469 33.109375 11.980469 C 32.714844 11.980469 32.703125 11.988281 32.613281 12.433594 C 33.1875 12.433594 33.757812 12.433594 34.351562 12.433594 C 34.3125 12.707031 34.207031 12.910156 34.125 13.121094 C 34.085938 13.222656 33.976562 13.199219 33.886719 13.199219 C 33.464844 13.199219 33.042969 13.199219 32.617188 13.199219 C 32.269531 13.199219 32.226562 13.242188 32.183594 13.65625 C 32.902344 13.65625 33.613281 13.65625 34.347656 13.65625 Z M 34.347656 13.65625 "/>
<path style=" stroke:none;fill-rule:nonzero;fill:rgb(0%,0%,0%);fill-opacity:1;" d="M 42.75 11.5 C 43.386719 10.882812 43.386719 10.878906 44.25 10.925781 C 44.304688 10.925781 44.367188 10.914062 44.410156 10.972656 C 44.414062 11.085938 44.316406 11.132812 44.25 11.195312 C 43.726562 11.710938 43.207031 12.222656 42.675781 12.726562 C 42.554688 12.84375 42.519531 12.941406 42.632812 13.078125 C 42.695312 13.152344 42.75 13.238281 42.792969 13.324219 C 42.925781 13.578125 43.136719 13.675781 43.417969 13.65625 C 43.503906 13.652344 43.597656 13.632812 43.703125 13.71875 C 43.59375 14.011719 43.484375 14.316406 43.371094 14.617188 C 43.347656 14.675781 43.300781 14.703125 43.238281 14.707031 C 43.199219 14.710938 43.15625 14.710938 43.117188 14.710938 C 42.066406 14.71875 42.128906 14.761719 41.585938 13.90625 C 41.496094 13.761719 41.402344 13.625 41.28125 13.441406 C 41.140625 13.820312 41.007812 14.152344 40.894531 14.484375 C 40.839844 14.648438 40.761719 14.726562 40.582031 14.714844 C 40.324219 14.703125 40.066406 14.710938 39.746094 14.710938 C 40.082031 13.789062 40.398438 12.914062 40.710938 12.046875 C 40.609375 11.945312 40.488281 12.011719 40.367188 11.945312 C 40.425781 11.613281 40.566406 11.300781 40.707031 10.984375 C 40.71875 10.957031 40.773438 10.933594 40.808594 10.933594 C 41.246094 10.929688 41.683594 10.929688 42.160156 10.929688 C 42.023438 11.5 41.765625 11.992188 41.660156 12.546875 C 42.019531 12.203125 42.378906 11.855469 42.75 11.5 Z M 42.75 11.5 "/>
<path style=" stroke:none;fill-rule:nonzero;fill:rgb(0%,0%,0%);fill-opacity:1;" d="M 29.121094 13.210938 C 29.324219 12.65625 29.242188 12.746094 29.773438 12.738281 C 29.941406 12.734375 30.113281 12.707031 30.273438 12.761719 C 30.320312 12.835938 30.292969 12.898438 30.269531 12.960938 C 30.082031 13.476562 29.886719 13.996094 29.703125 14.515625 C 29.652344 14.652344 29.574219 14.710938 29.429688 14.710938 C 28.925781 14.703125 28.421875 14.722656 27.917969 14.703125 C 27.0625 14.671875 26.558594 13.960938 26.769531 13.101562 C 27.058594 11.914062 28.304688 10.933594 29.523438 10.929688 C 29.921875 10.925781 30.320312 10.925781 30.71875 10.929688 C 30.96875 10.929688 30.988281 10.960938 30.90625 11.203125 C 30.648438 11.980469 30.648438 11.980469 29.832031 11.980469 C 29.589844 11.980469 29.34375 11.980469 29.101562 11.980469 C 28.507812 11.984375 28.015625 12.371094 27.878906 12.945312 C 27.792969 13.308594 28.015625 13.621094 28.382812 13.652344 C 28.425781 13.65625 28.464844 13.65625 28.507812 13.65625 C 29 13.640625 28.917969 13.761719 29.121094 13.210938 Z M 29.121094 13.210938 "/>
<path style=" stroke:none;fill-rule:nonzero;fill:rgb(0%,0%,0%);fill-opacity:1;" d="M 16.710938 44.320312 C 16.160156 44.480469 15.789062 44.273438 15.566406 43.683594 C 15.4375 43.699219 15.300781 43.738281 15.167969 43.730469 C 14.546875 43.707031 14.210938 43.140625 14.484375 42.554688 C 14.667969 42.152344 14.898438 41.765625 15.109375 41.367188 C 15.203125 41.191406 15.304688 41.011719 15.398438 40.832031 C 15.453125 40.722656 15.527344 40.695312 15.632812 40.757812 C 15.640625 40.761719 15.648438 40.765625 15.652344 40.769531 C 16.296875 41.058594 16.296875 41.058594 15.960938 41.671875 C 15.785156 41.992188 15.609375 42.3125 15.4375 42.636719 C 15.398438 42.710938 15.324219 42.78125 15.378906 42.886719 C 15.511719 42.910156 15.535156 42.792969 15.574219 42.71875 C 15.820312 42.277344 16.0625 41.835938 16.296875 41.390625 C 16.378906 41.234375 16.457031 41.199219 16.621094 41.285156 C 17.207031 41.589844 17.210938 41.582031 16.894531 42.164062 C 16.726562 42.476562 16.550781 42.789062 16.382812 43.105469 C 16.335938 43.191406 16.246094 43.273438 16.304688 43.40625 C 16.441406 43.410156 16.472656 43.296875 16.519531 43.210938 C 16.753906 42.785156 16.992188 42.355469 17.214844 41.925781 C 17.304688 41.75 17.394531 41.714844 17.578125 41.808594 C 18.136719 42.097656 18.140625 42.089844 17.847656 42.632812 C 17.625 43.046875 17.398438 43.460938 17.171875 43.875 C 17.070312 44.066406 16.9375 44.226562 16.710938 44.320312 Z M 16.710938 44.320312 "/>
<path style=" stroke:none;fill-rule:nonzero;fill:rgb(0%,0%,0%);fill-opacity:1;" d="M 23.738281 26.589844 C 23.382812 26.65625 23.238281 26.574219 23.121094 26.261719 C 22.980469 25.863281 23.074219 25.472656 23.152344 25.085938 C 23.210938 24.78125 23.308594 24.488281 23.429688 24.203125 C 23.472656 24.101562 23.488281 23.921875 23.65625 23.984375 C 23.824219 24.050781 23.65625 24.179688 23.691406 24.328125 C 23.816406 23.828125 24.195312 23.925781 24.527344 23.917969 C 24.683594 23.914062 24.839844 23.933594 24.992188 23.921875 C 25.332031 23.894531 25.632812 23.925781 25.714844 24.363281 C 25.742188 24.320312 25.757812 24.308594 25.757812 24.300781 C 25.742188 24.191406 25.613281 24.046875 25.773438 23.988281 C 25.957031 23.917969 25.960938 24.121094 26.007812 24.226562 C 26.1875 24.675781 26.308594 25.136719 26.367188 25.613281 C 26.398438 25.859375 26.382812 26.101562 26.28125 26.332031 C 26.175781 26.570312 26.003906 26.65625 25.75 26.601562 C 25.425781 26.53125 25.136719 26.390625 24.894531 26.164062 C 24.769531 26.050781 24.679688 26.039062 24.546875 26.164062 C 24.328125 26.378906 24.058594 26.511719 23.738281 26.589844 M 24.445312 25.691406 C 24.441406 25.683594 24.4375 25.675781 24.429688 25.671875 C 24.425781 25.671875 24.414062 25.675781 24.410156 25.683594 C 24.179688 26.101562 23.867188 26.367188 23.335938 26.222656 C 23.398438 26.421875 23.546875 26.417969 23.679688 26.390625 C 24.0625 26.316406 24.363281 26.136719 24.445312 25.691406 M 25.023438 25.921875 C 25.316406 26.355469 25.816406 26.535156 26.039062 26.253906 C 25.460938 26.355469 25.15625 26.035156 24.925781 25.589844 C 24.953125 25.6875 24.984375 25.789062 25.023438 25.921875 Z M 25.023438 25.921875 "/>
<path style=" stroke:none;fill-rule:nonzero;fill:rgb(0%,0%,0%);fill-opacity:1;" d="M 30.746094 45.390625 C 30.628906 45.414062 30.605469 45.335938 30.578125 45.269531 C 30.539062 45.164062 30.5 45.054688 30.46875 44.949219 C 30.367188 44.628906 30.371094 44.625 30.679688 44.476562 C 30.996094 44.324219 31.105469 44.09375 31 43.785156 C 30.902344 43.484375 30.6875 43.367188 30.347656 43.433594 C 30.222656 43.457031 30.09375 43.488281 29.96875 43.570312 C 30.039062 43.914062 30.167969 44.234375 30.273438 44.566406 C 30.332031 44.75 30.398438 44.933594 30.457031 45.121094 C 30.5625 45.445312 30.5625 45.445312 30.222656 45.550781 C 29.722656 45.710938 29.71875 45.710938 29.558594 45.214844 C 29.34375 44.558594 29.132812 43.898438 28.914062 43.246094 C 28.851562 43.066406 28.886719 42.976562 29.074219 42.929688 C 29.570312 42.808594 30.03125 42.558594 30.558594 42.558594 C 31.21875 42.5625 31.679688 42.898438 31.863281 43.519531 C 32.058594 44.195312 31.847656 44.8125 31.300781 45.160156 C 31.136719 45.265625 30.957031 45.34375 30.746094 45.390625 Z M 30.746094 45.390625 "/>
<path style=" stroke:none;fill-rule:nonzero;fill:rgb(0%,0%,0%);fill-opacity:1;" d="M 25.257812 45.507812 C 24.894531 46.132812 24.332031 46.40625 23.648438 46.300781 C 23.089844 46.210938 22.601562 45.757812 22.476562 45.164062 C 22.351562 44.566406 22.515625 44.046875 23.007812 43.664062 C 23.492188 43.285156 24.042969 43.226562 24.589844 43.496094 C 25.113281 43.757812 25.402344 44.203125 25.410156 44.808594 C 25.410156 45.046875 25.378906 45.277344 25.257812 45.507812 M 23.980469 45.441406 C 24.117188 45.429688 24.226562 45.363281 24.324219 45.273438 C 24.566406 45.042969 24.570312 44.636719 24.339844 44.398438 C 24.109375 44.160156 23.746094 44.160156 23.515625 44.398438 C 23.332031 44.589844 23.300781 44.820312 23.382812 45.054688 C 23.472656 45.300781 23.667969 45.445312 23.980469 45.441406 Z M 23.980469 45.441406 "/>
<path style=" stroke:none;fill-rule:nonzero;fill:rgb(0%,0%,0%);fill-opacity:1;" d="M 27.785156 44.660156 C 27.59375 44.855469 27.625 45.03125 27.753906 45.234375 C 27.90625 45.480469 28.027344 45.742188 28.183594 46.03125 C 27.875 46.066406 27.621094 46.117188 27.363281 46.109375 C 27.289062 46.109375 27.238281 46.070312 27.207031 46.011719 C 26.980469 45.613281 26.6875 45.238281 26.707031 44.742188 C 26.707031 44.65625 26.675781 44.558594 26.789062 44.511719 C 26.90625 44.46875 27.042969 44.414062 26.964844 44.253906 C 26.890625 44.105469 26.75 44.148438 26.59375 44.175781 C 26.628906 44.527344 26.664062 44.871094 26.695312 45.214844 C 26.722656 45.464844 26.746094 45.714844 26.773438 45.964844 C 26.789062 46.128906 26.722656 46.195312 26.554688 46.210938 C 25.921875 46.269531 25.925781 46.277344 25.859375 45.628906 C 25.789062 44.976562 25.722656 44.320312 25.640625 43.667969 C 25.625 43.511719 25.664062 43.445312 25.824219 43.433594 C 26.171875 43.40625 26.519531 43.34375 26.867188 43.332031 C 27.628906 43.308594 28.0625 43.933594 27.785156 44.660156 Z M 27.785156 44.660156 "/>
<path style=" stroke:none;fill-rule:nonzero;fill:rgb(0%,0%,0%);fill-opacity:1;" d="M 14.609375 14.34375 C 14.578125 14.375 14.554688 14.394531 14.527344 14.417969 C 14.457031 14.339844 14.527344 14.292969 14.554688 14.246094 C 14.945312 13.636719 15.5 13.320312 16.226562 13.261719 C 17.652344 13.144531 19.082031 13.097656 20.511719 13.0625 C 22.082031 13.023438 23.648438 12.992188 25.21875 12.988281 C 25.558594 12.988281 25.902344 13.011719 26.242188 13.019531 C 26.632812 13.023438 26.632812 13.019531 26.546875 13.414062 C 26.46875 13.472656 26.375 13.449219 26.289062 13.445312 C 24.410156 13.410156 22.53125 13.460938 20.652344 13.503906 C 19.136719 13.535156 17.613281 13.574219 16.097656 13.6875 C 15.53125 13.730469 15.007812 13.878906 14.609375 14.34375 Z M 14.609375 14.34375 "/>
<path style=" stroke:none;fill-rule:nonzero;fill:rgb(0%,0%,0%);fill-opacity:1;" d="M 21.128906 44.507812 C 21.019531 44.90625 20.917969 45.28125 20.824219 45.660156 C 20.785156 45.816406 20.726562 45.871094 20.554688 45.828125 C 19.90625 45.671875 19.90625 45.679688 20.074219 45.042969 C 20.171875 44.675781 20.265625 44.304688 20.363281 43.933594 C 20.394531 43.832031 20.433594 43.710938 20.285156 43.675781 C 20.148438 43.644531 20.105469 43.757812 20.078125 43.863281 C 19.949219 44.34375 19.820312 44.820312 19.691406 45.300781 C 19.667969 45.382812 19.660156 45.476562 19.582031 45.550781 C 19.351562 45.527344 19.132812 45.441406 18.90625 45.382812 C 18.789062 45.351562 18.785156 45.277344 18.8125 45.175781 C 18.96875 44.59375 19.105469 44.007812 19.285156 43.4375 C 19.453125 42.902344 19.972656 42.660156 20.542969 42.808594 C 21.113281 42.960938 21.375 43.367188 21.265625 43.945312 C 21.230469 44.128906 21.179688 44.308594 21.128906 44.507812 Z M 21.128906 44.507812 "/>
<path style=" stroke:none;fill-rule:nonzero;fill:rgb(0%,0%,0%);fill-opacity:1;" d="M 34.027344 43.625 C 33.882812 43.554688 33.777344 43.460938 33.707031 43.34375 C 33.476562 42.960938 33.238281 42.582031 33.035156 42.183594 C 32.84375 41.820312 32.941406 41.453125 33.269531 41.210938 C 33.476562 41.058594 33.710938 40.9375 33.933594 40.800781 C 34.027344 40.742188 34.101562 40.761719 34.152344 40.859375 C 34.15625 40.867188 34.164062 40.871094 34.167969 40.878906 C 34.261719 41.050781 34.421875 41.210938 34.441406 41.390625 C 34.464844 41.621094 34.167969 41.613281 34.03125 41.738281 C 33.980469 41.789062 33.894531 41.824219 33.933594 41.910156 C 33.988281 42.015625 34.070312 41.964844 34.144531 41.929688 C 34.167969 41.917969 34.1875 41.90625 34.210938 41.890625 C 34.589844 41.679688 34.527344 41.605469 34.800781 42.058594 C 34.894531 42.210938 34.875 42.308594 34.714844 42.386719 C 34.613281 42.441406 34.519531 42.503906 34.421875 42.5625 C 34.355469 42.605469 34.308594 42.667969 34.359375 42.746094 C 34.410156 42.820312 34.476562 42.78125 34.535156 42.75 C 34.660156 42.683594 34.792969 42.613281 34.914062 42.535156 C 35.027344 42.460938 35.09375 42.480469 35.171875 42.59375 C 35.554688 43.15625 35.558594 43.15625 34.964844 43.488281 C 34.675781 43.648438 34.382812 43.785156 34.027344 43.625 Z M 34.027344 43.625 "/>
<path style=" stroke:none;fill-rule:nonzero;fill:rgb(0%,0%,0%);fill-opacity:1;" d="M 18.785156 43.632812 C 18.617188 44.074219 18.449219 44.5 18.292969 44.925781 C 18.238281 45.082031 18.167969 45.128906 18.007812 45.0625 C 17.253906 44.753906 17.355469 44.929688 17.617188 44.207031 C 17.835938 43.605469 18.078125 43.011719 18.296875 42.410156 C 18.371094 42.207031 18.460938 42.171875 18.65625 42.253906 C 19.226562 42.492188 19.230469 42.484375 19.011719 43.050781 C 18.9375 43.238281 18.867188 43.429688 18.785156 43.632812 Z M 18.785156 43.632812 "/>
<path style=" stroke:none;fill-rule:nonzero;fill:rgb(0%,0%,0%);fill-opacity:1;" d="M 31.941406 42.859375 C 31.839844 42.640625 31.753906 42.441406 31.652344 42.246094 C 31.585938 42.109375 31.601562 42.035156 31.75 41.964844 C 32.359375 41.671875 32.359375 41.667969 32.640625 42.265625 C 32.917969 42.863281 33.191406 43.460938 33.476562 44.054688 C 33.546875 44.207031 33.523438 44.28125 33.367188 44.355469 C 32.769531 44.640625 32.773438 44.644531 32.5 44.042969 C 32.320312 43.652344 32.132812 43.265625 31.941406 42.859375 Z M 31.941406 42.859375 "/>
<path style=" stroke:none;fill-rule:nonzero;fill:rgb(0%,0%,0%);fill-opacity:1;" d="M 34.808594 10.019531 C 34.644531 9.910156 34.496094 9.808594 34.347656 9.707031 C 34.066406 9.515625 34.0625 9.484375 34.292969 9.167969 C 35.027344 9.625 35.726562 10.128906 36.382812 10.703125 C 36.039062 10.914062 35.980469 10.910156 35.71875 10.707031 C 35.421875 10.476562 35.121094 10.253906 34.808594 10.019531 Z M 34.808594 10.019531 "/>
<path style=" stroke:none;fill-rule:nonzero;fill:rgb(0%,0%,0%);fill-opacity:1;" d="M 21.75 7.15625 C 21.207031 7.273438 20.683594 7.390625 20.164062 7.503906 C 20.035156 7.207031 20.082031 7.101562 20.371094 7.023438 C 20.898438 6.886719 21.429688 6.777344 21.964844 6.683594 C 22.03125 6.671875 22.09375 6.664062 22.15625 6.695312 C 22.15625 7.023438 22.085938 7.105469 21.75 7.15625 Z M 21.75 7.15625 "/>
<path style=" stroke:none;fill-rule:nonzero;fill:rgb(0%,0%,0%);fill-opacity:1;" d="M 32.238281 10.097656 C 32.074219 10.011719 31.925781 9.933594 31.710938 9.824219 C 31.964844 9.734375 32.160156 9.726562 32.332031 9.796875 C 32.890625 10.03125 33.394531 10.371094 33.894531 10.730469 C 33.683594 10.808594 33.484375 10.820312 33.285156 10.703125 C 32.945312 10.5 32.597656 10.304688 32.238281 10.097656 Z M 32.238281 10.097656 "/>
<path style=" stroke:none;fill-rule:nonzero;fill:rgb(0%,0%,0%);fill-opacity:1;" d="M 26.707031 26.152344 C 26.75 26.5625 26.5625 26.84375 26.265625 27.058594 C 26.109375 27.167969 26.019531 27.289062 26.027344 27.496094 C 26.03125 27.679688 26 27.875 25.84375 28.070312 C 25.769531 27.625 25.703125 27.222656 25.632812 26.796875 C 26.292969 26.882812 26.585938 26.5625 26.570312 25.929688 C 26.707031 25.960938 26.664062 26.070312 26.707031 26.152344 Z M 26.707031 26.152344 "/>
<path style=" stroke:none;fill-rule:nonzero;fill:rgb(0%,0%,0%);fill-opacity:1;" d="M 23.378906 27.667969 C 23.410156 27.375 23.320312 27.175781 23.078125 27.015625 C 22.765625 26.804688 22.628906 26.492188 22.691406 26.105469 C 22.699219 26.058594 22.703125 26.007812 22.785156 25.976562 C 22.847656 26.527344 23.085938 26.890625 23.753906 26.785156 C 23.6875 27.203125 23.621094 27.609375 23.550781 28.050781 C 23.402344 27.941406 23.425781 27.800781 23.378906 27.667969 Z M 23.378906 27.667969 "/>
<path style=" stroke:none;fill-rule:nonzero;fill:rgb(0%,0%,0%);fill-opacity:1;" d="M 35.164062 13.570312 C 35.070312 13.238281 34.917969 12.960938 34.644531 12.773438 C 34.476562 12.65625 34.464844 12.546875 34.582031 12.394531 C 35.238281 12.546875 35.644531 13.484375 35.277344 14.003906 C 35.171875 13.882812 35.210938 13.726562 35.164062 13.570312 Z M 35.164062 13.570312 "/>
<path style=" stroke:none;fill-rule:nonzero;fill:rgb(0%,0%,0%);fill-opacity:1;" d="M 30.46875 12.3125 C 29.890625 12.289062 29.332031 12.347656 28.75 12.265625 C 28.847656 12.121094 28.960938 12.144531 29.058594 12.144531 C 29.535156 12.140625 30.015625 12.140625 30.496094 12.144531 C 30.625 12.144531 30.734375 12.128906 30.78125 11.980469 C 30.835938 11.816406 30.964844 11.832031 31.085938 11.855469 C 31.148438 11.9375 31.085938 12.011719 31.109375 12.078125 C 31.191406 12.179688 31.335938 12.097656 31.460938 12.238281 C 31.128906 12.390625 30.800781 12.277344 30.46875 12.3125 Z M 30.46875 12.3125 "/>
<path style=" stroke:none;fill-rule:nonzero;fill:rgb(0%,0%,0%);fill-opacity:1;" d="M 18.84375 10.300781 C 18.640625 10.441406 18.453125 10.566406 18.265625 10.695312 C 18.128906 10.796875 17.984375 10.832031 17.8125 10.769531 C 18.132812 10.28125 19.269531 9.679688 19.617188 9.835938 C 19.355469 9.996094 19.105469 10.144531 18.84375 10.300781 Z M 18.84375 10.300781 "/>
<path style=" stroke:none;fill-rule:nonzero;fill:rgb(0%,0%,0%);fill-opacity:1;" d="M 30.292969 9.828125 C 30.753906 10.097656 31.183594 10.378906 31.613281 10.734375 C 31.429688 10.804688 31.285156 10.792969 31.175781 10.71875 C 30.75 10.421875 30.308594 10.148438 29.859375 9.886719 C 29.84375 9.875 29.832031 9.851562 29.8125 9.820312 C 29.972656 9.722656 30.125 9.761719 30.292969 9.828125 Z M 30.292969 9.828125 "/>
<path style=" stroke:none;fill-rule:nonzero;fill:rgb(0%,0%,0%);fill-opacity:1;" d="M 20.960938 8.710938 C 20.714844 8.796875 20.488281 8.882812 20.257812 8.957031 C 20.179688 8.984375 20.074219 9.050781 20.039062 8.914062 C 20.015625 8.824219 20.019531 8.703125 20.132812 8.664062 C 20.582031 8.511719 21.039062 8.394531 21.5625 8.304688 C 21.464844 8.65625 21.164062 8.59375 20.960938 8.710938 Z M 20.960938 8.710938 "/>
<path style=" stroke:none;fill-rule:nonzero;fill:rgb(0%,0%,0%);fill-opacity:1;" d="M 20.652344 25.734375 C 20.960938 25.617188 20.894531 25.332031 20.9375 25.074219 C 21.074219 25.144531 21.117188 25.277344 21.089844 25.375 C 20.996094 25.675781 20.953125 25.972656 21.121094 26.3125 C 20.78125 26.109375 20.765625 26.113281 20.613281 26.421875 C 20.53125 26.585938 20.457031 26.75 20.355469 26.902344 C 20.339844 26.492188 20.5 26.128906 20.652344 25.75 C 20.65625 25.730469 20.652344 25.734375 20.652344 25.734375 Z M 20.652344 25.734375 "/>
<path style=" stroke:none;fill-rule:nonzero;fill:rgb(0%,0%,0%);fill-opacity:1;" d="M 18.605469 24.234375 C 18.351562 24.1875 18.105469 24.175781 17.886719 23.96875 C 18.554688 23.96875 19.179688 23.96875 19.839844 23.96875 C 19.644531 24.195312 19.324219 24.253906 18.605469 24.234375 Z M 18.605469 24.234375 "/>
<path style=" stroke:none;fill-rule:nonzero;fill:rgb(0%,0%,0%);fill-opacity:1;" d="M 29.074219 7.394531 C 28.90625 7.355469 28.753906 7.324219 28.605469 7.285156 C 28.519531 7.261719 28.414062 7.242188 28.457031 7.117188 C 28.492188 7.015625 28.503906 6.863281 28.65625 6.875 C 28.914062 6.902344 29.164062 6.972656 29.410156 7.050781 C 29.503906 7.082031 29.507812 7.152344 29.472656 7.226562 C 29.429688 7.316406 29.433594 7.449219 29.28125 7.441406 C 29.21875 7.4375 29.15625 7.414062 29.074219 7.394531 Z M 29.074219 7.394531 "/>
<path style=" stroke:none;fill-rule:nonzero;fill:rgb(0%,0%,0%);fill-opacity:1;" d="M 28.582031 25.300781 C 28.605469 25.492188 28.679688 25.636719 28.796875 25.769531 C 29 26.007812 29.160156 26.535156 29.15625 26.910156 C 29.003906 26.753906 28.980469 26.554688 28.890625 26.390625 C 28.734375 26.109375 28.707031 26.09375 28.453125 26.265625 C 28.402344 26.222656 28.433594 26.171875 28.449219 26.132812 C 28.542969 25.917969 28.535156 25.714844 28.4375 25.503906 C 28.367188 25.351562 28.414062 25.207031 28.53125 25.078125 C 28.621094 25.136719 28.5625 25.21875 28.582031 25.300781 Z M 28.582031 25.300781 "/>
<path style=" stroke:none;fill-rule:nonzero;fill:rgb(0%,0%,0%);fill-opacity:1;" d="M 30.71875 14.207031 C 30.5625 14.617188 30.441406 14.660156 29.914062 14.527344 C 29.90625 14.0625 30.226562 13.84375 30.664062 14.011719 C 30.769531 14.050781 30.738281 14.121094 30.71875 14.207031 Z M 30.71875 14.207031 "/>
<path style=" stroke:none;fill-rule:nonzero;fill:rgb(0%,0%,0%);fill-opacity:1;" d="M 30.136719 23.96875 C 30.632812 23.96875 31.105469 23.96875 31.574219 23.96875 C 31.335938 24.292969 30.144531 24.347656 29.773438 24.035156 C 29.871094 23.933594 30 23.988281 30.136719 23.96875 Z M 30.136719 23.96875 "/>
<path style=" stroke:none;fill-rule:nonzero;fill:rgb(0%,0%,0%);fill-opacity:1;" d="M 20.648438 9.070312 C 20.878906 9 21.074219 8.878906 21.324219 8.863281 C 21.332031 9.007812 21.292969 9.125 21.175781 9.171875 C 20.804688 9.328125 20.429688 9.46875 20.050781 9.617188 C 19.960938 9.433594 20.019531 9.332031 20.1875 9.265625 C 20.335938 9.207031 20.484375 9.140625 20.648438 9.070312 Z M 20.648438 9.070312 "/>
<path style=" stroke:none;fill-rule:nonzero;fill:rgb(0%,0%,0%);fill-opacity:1;" d="M 28.828125 13.070312 C 28.972656 13.144531 28.964844 13.382812 28.832031 13.46875 C 28.671875 13.574219 28.179688 13.46875 28.082031 13.304688 C 27.972656 13.125 28.015625 13.035156 28.230469 13.039062 C 28.421875 13.039062 28.613281 13.058594 28.828125 13.070312 Z M 28.828125 13.070312 "/>
<path style=" stroke:none;fill-rule:nonzero;fill:rgb(0%,0%,0%);fill-opacity:1;" d="M 22.640625 24.601562 C 22.722656 24.378906 22.765625 24.15625 22.921875 23.953125 C 23.0625 24.144531 23.132812 24.304688 23.035156 24.519531 C 22.921875 24.761719 22.929688 25.035156 22.890625 25.320312 C 22.746094 25.226562 22.804688 25.074219 22.730469 24.984375 C 22.671875 24.945312 22.648438 25.070312 22.570312 25.007812 C 22.550781 24.878906 22.597656 24.75 22.640625 24.601562 Z M 22.640625 24.601562 "/>
<path style=" stroke:none;fill-rule:nonzero;fill:rgb(0%,0%,0%);fill-opacity:1;" d="M 26.621094 25.214844 C 26.539062 24.890625 26.492188 24.570312 26.375 24.265625 C 26.316406 24.117188 26.566406 24.128906 26.527344 23.96875 C 26.78125 24.285156 26.882812 24.636719 26.921875 25.015625 C 26.808594 25.054688 26.816406 24.9375 26.746094 24.929688 C 26.683594 25.015625 26.761719 25.164062 26.621094 25.214844 Z M 26.621094 25.214844 "/>
<path style=" stroke:none;fill-rule:nonzero;fill:rgb(0%,0%,0%);fill-opacity:1;" d="M 24.746094 27.421875 C 24.785156 27.371094 24.816406 27.382812 24.824219 27.417969 C 24.964844 27.949219 24.992188 28.476562 24.789062 29.074219 C 24.582031 28.488281 24.613281 27.964844 24.746094 27.421875 Z M 24.746094 27.421875 "/>
<path style=" stroke:none;fill-rule:nonzero;fill:rgb(0%,0%,0%);fill-opacity:1;" d="M 30.292969 13.507812 C 30.265625 13.347656 30.289062 13.179688 30.425781 13.144531 C 30.613281 13.089844 30.824219 13.085938 31.015625 13.164062 C 31.089844 13.195312 31.054688 13.277344 31.03125 13.335938 C 30.992188 13.441406 30.980469 13.570312 30.828125 13.570312 C 30.652344 13.574219 30.476562 13.589844 30.292969 13.507812 Z M 30.292969 13.507812 "/>
<path style=" stroke:none;fill-rule:nonzero;fill:rgb(0%,0%,0%);fill-opacity:1;" d="M 28.464844 8.699219 C 28.324219 8.65625 28.199219 8.625 28.074219 8.585938 C 28 8.558594 27.914062 8.53125 27.949219 8.417969 C 27.980469 8.316406 28.046875 8.269531 28.148438 8.292969 C 28.378906 8.34375 28.605469 8.394531 28.835938 8.449219 C 28.914062 8.46875 28.964844 8.515625 28.929688 8.609375 C 28.902344 8.6875 28.878906 8.769531 28.769531 8.757812 C 28.675781 8.742188 28.582031 8.722656 28.464844 8.699219 Z M 28.464844 8.699219 "/>
<path style=" stroke:none;fill-rule:nonzero;fill:rgb(0%,0%,0%);fill-opacity:1;" d="M 28.367188 8.929688 C 28.464844 8.972656 28.546875 9 28.628906 9.039062 C 28.691406 9.070312 28.722656 9.125 28.695312 9.199219 C 28.667969 9.273438 28.617188 9.3125 28.546875 9.289062 C 28.300781 9.207031 28.058594 9.125 27.816406 9.039062 C 27.738281 9.007812 27.742188 8.941406 27.769531 8.875 C 27.796875 8.796875 27.851562 8.753906 27.9375 8.785156 C 28.074219 8.828125 28.210938 8.878906 28.367188 8.929688 Z M 28.367188 8.929688 "/>
<path style=" stroke:none;fill-rule:nonzero;fill:rgb(0%,0%,0%);fill-opacity:1;" d="M 35.84375 12.546875 C 35.492188 12.53125 35.226562 12.144531 35.390625 11.859375 C 35.554688 12 35.726562 12.132812 35.878906 12.28125 C 35.953125 12.351562 35.882812 12.449219 35.84375 12.546875 Z M 35.84375 12.546875 "/>
<path style=" stroke:none;fill-rule:nonzero;fill:rgb(0%,0%,0%);fill-opacity:1;" d="M 34.082031 12.296875 C 33.707031 12.296875 33.351562 12.296875 32.996094 12.289062 C 32.960938 12.289062 32.929688 12.25 32.890625 12.230469 C 33.078125 12.105469 34.039062 12.109375 34.214844 12.226562 C 34.199219 12.285156 34.148438 12.285156 34.082031 12.296875 Z M 34.082031 12.296875 "/>
<path style=" stroke:none;fill-rule:nonzero;fill:rgb(0%,0%,0%);fill-opacity:1;" d="M 32.789062 13.496094 C 32.65625 13.484375 32.542969 13.527344 32.4375 13.457031 C 32.570312 13.324219 33.429688 13.3125 33.632812 13.496094 C 33.359375 13.496094 33.082031 13.496094 32.789062 13.496094 Z M 32.789062 13.496094 "/>
<path style=" stroke:none;fill-rule:nonzero;fill:rgb(0%,0%,0%);fill-opacity:1;" d="M 24.371094 26.820312 C 24.261719 26.660156 24.4375 26.6875 24.484375 26.636719 C 24.539062 26.585938 24.613281 26.59375 24.648438 26.664062 C 24.734375 26.828125 24.757812 27.003906 24.742188 27.230469 C 24.582031 27.089844 24.574219 26.875 24.371094 26.820312 Z M 24.371094 26.820312 "/>
<path style=" stroke:none;fill-rule:nonzero;fill:rgb(0%,0%,0%);fill-opacity:1;" d="M 25.0625 26.609375 C 25.136719 26.660156 25.191406 26.703125 25.265625 26.765625 C 25.109375 26.875 24.972656 26.980469 24.921875 27.1875 C 24.796875 26.953125 24.867188 26.699219 25.0625 26.609375 Z M 25.0625 26.609375 "/>
<path style=" stroke:none;fill-rule:nonzero;fill:rgb(0%,0%,0%);fill-opacity:1;" d="M 38.957031 13.414062 C 38.765625 13.570312 38.585938 13.558594 38.410156 13.359375 C 38.613281 13.421875 38.785156 13.109375 38.957031 13.414062 Z M 38.957031 13.414062 "/>
<path style=" stroke:none;fill-rule:nonzero;fill:rgb(0%,0%,0%);fill-opacity:1;" d="M 37.90625 12.246094 C 37.730469 12.328125 37.570312 12.339844 37.425781 12.207031 C 37.59375 12.148438 37.757812 12.070312 37.90625 12.246094 Z M 37.90625 12.246094 "/>
<path style=" stroke:none;fill-rule:nonzero;fill:rgb(0%,0%,0%);fill-opacity:1;" d="M 23.789062 8.472656 C 23.777344 8.675781 23.65625 8.613281 23.554688 8.605469 C 23.519531 8.492188 23.546875 8.414062 23.636719 8.371094 C 23.710938 8.339844 23.753906 8.398438 23.789062 8.472656 Z M 23.789062 8.472656 "/>
<path style=" stroke:none;fill-rule:nonzero;fill:rgb(0%,0%,0%);fill-opacity:1;" d="M 31.109375 11.167969 C 31.140625 10.96875 31.265625 11.023438 31.417969 11.042969 C 31.371094 11.25 31.273438 11.269531 31.109375 11.167969 Z M 31.109375 11.167969 "/>
<path style=" stroke:none;fill-rule:nonzero;fill:rgb(0%,0%,0%);fill-opacity:1;" d="M 31.1875 11.53125 C 31.101562 11.527344 31.011719 11.570312 30.992188 11.460938 C 30.980469 11.414062 31.007812 11.363281 31.054688 11.34375 C 31.128906 11.316406 31.207031 11.320312 31.257812 11.378906 C 31.320312 11.445312 31.269531 11.496094 31.1875 11.53125 Z M 31.1875 11.53125 "/>
<path style=" stroke:none;fill-rule:nonzero;fill:rgb(0%,0%,0%);fill-opacity:1;" d="M 25.75 8.417969 C 25.800781 8.386719 25.839844 8.335938 25.886719 8.386719 C 25.925781 8.425781 25.898438 8.480469 25.878906 8.519531 C 25.835938 8.609375 25.765625 8.621094 25.679688 8.589844 C 25.632812 8.507812 25.695312 8.472656 25.75 8.417969 Z M 25.75 8.417969 "/>
<path style=" stroke:none;fill-rule:nonzero;fill:rgb(0%,0%,0%);fill-opacity:1;" d="M 20.457031 36.472656 C 20.378906 36.113281 20.164062 35.824219 20 35.507812 C 19.929688 35.371094 19.851562 35.238281 19.78125 35.117188 C 19.808594 35.003906 19.886719 35.101562 19.886719 35.105469 C 20.066406 34.726562 19.773438 34.578125 19.628906 34.367188 C 19.585938 34.300781 19.527344 34.238281 19.546875 34.058594 C 19.835938 34.492188 20.285156 34.660156 20.570312 35.019531 C 20.859375 35.378906 20.917969 35.878906 21.296875 36.179688 C 21.066406 35.640625 20.824219 35.105469 20.445312 34.640625 C 20.902344 34.890625 21.308594 35.199219 21.648438 35.570312 C 21.75 35.488281 21.652344 35.414062 21.722656 35.351562 C 21.925781 35.519531 22.003906 35.804688 22.257812 35.933594 C 22.308594 35.851562 22.183594 35.78125 22.253906 35.65625 C 22.457031 35.851562 22.640625 36.046875 22.769531 36.28125 C 22.894531 36.511719 22.859375 36.804688 23.078125 37.042969 C 23.171875 36.710938 22.957031 36.476562 22.941406 36.191406 C 23.1875 36.589844 23.539062 36.863281 23.941406 37.160156 C 23.984375 36.859375 23.78125 36.636719 23.894531 36.378906 C 24.046875 36.503906 24 36.738281 24.183594 36.855469 C 24.226562 36.59375 24.050781 36.316406 24.230469 36.066406 C 24.375 36.207031 24.273438 36.425781 24.457031 36.597656 C 24.429688 36.207031 24.320312 35.851562 24.574219 35.535156 C 24.597656 35.835938 24.65625 36.125 24.726562 36.410156 C 24.773438 36.601562 24.851562 36.78125 24.816406 36.992188 C 24.707031 37.675781 24.199219 37.984375 23.441406 37.84375 C 22.929688 37.75 22.5 37.496094 22.078125 37.21875 C 21.695312 36.96875 21.289062 36.765625 20.839844 36.664062 C 20.707031 36.632812 20.613281 36.539062 20.476562 36.484375 C 20.460938 36.476562 20.460938 36.476562 20.457031 36.472656 M 20.1875 35.132812 C 20.359375 35.363281 20.53125 35.59375 20.703125 35.824219 C 20.632812 35.519531 20.507812 35.253906 20.269531 35.054688 C 20.199219 35 20.195312 35.003906 20.1875 35.132812 M 21.515625 35.800781 C 21.507812 35.800781 21.5 35.796875 21.492188 35.800781 C 21.484375 35.804688 21.472656 35.8125 21.476562 35.816406 C 21.539062 35.980469 21.632812 36.121094 21.789062 36.210938 C 21.761719 36.035156 21.667969 35.910156 21.515625 35.800781 M 22.25 36.417969 C 22.113281 36.585938 22.261719 36.644531 22.359375 36.800781 C 22.398438 36.605469 22.355469 36.511719 22.25 36.417969 Z M 22.25 36.417969 "/>
</g>
</svg>
