<?xml version="1.0" standalone="no"?>
<!DOCTYPE svg PUBLIC "-//W3C//DTD SVG 20010904//EN"
 "http://www.w3.org/TR/2001/REC-SVG-20010904/DTD/svg10.dtd">
<svg version="1.0" xmlns="http://www.w3.org/2000/svg"
 width="512.000000pt" height="512.000000pt" viewBox="0 0 512.000000 512.000000"
 preserveAspectRatio="xMidYMid meet">

<g transform="translate(0.000000,512.000000) scale(0.100000,-0.100000)"
fill="#000000" stroke="none">
<path d="M512 4239 c-278 -36 -490 -262 -509 -542 -17 -268 143 -504 407 -599
l65 -23 2085 0 2085 0 65 23 c155 56 276 159 343 292 169 336 -4 728 -369 837
-56 17 -178 18 -2084 19 -1114 1 -2053 -2 -2088 -7z"/>
<path d="M483 2039 c-174 -29 -336 -151 -417 -313 -169 -334 11 -733 375 -833
60 -17 188 -18 2119 -18 1931 0 2059 1 2119 18 247 68 421 278 438 530 17 268
-143 504 -407 599 l-65 23 -2055 1 c-1150 1 -2078 -2 -2107 -7z"/>
</g>
</svg>
